<svg width="44" height="44" viewBox="0 0 44 44" fill="none" xmlns="http://www.w3.org/2000/svg">
<circle cx="22" cy="22" r="22" fill="#7D00FF"/>
<path d="M28.9249 18.1503C29.5331 18.1503 30.1276 17.9699 30.6333 17.632C31.139 17.2941 31.5332 16.8139 31.7659 16.252C31.9987 15.6901 32.0596 15.0717 31.9409 14.4752C31.8223 13.8787 31.5294 13.3308 31.0993 12.9007C30.6692 12.4706 30.1213 12.1777 29.5248 12.0591C28.9283 11.9404 28.31 12.0013 27.748 12.2341C27.1861 12.4668 26.7059 12.861 26.368 13.3667C26.0301 13.8724 25.8497 14.4669 25.8497 15.0752C25.8497 15.479 25.9292 15.8789 26.0837 16.252C26.2383 16.6251 26.4648 16.9641 26.7503 17.2497C27.0359 17.5352 27.3749 17.7617 27.748 17.9163C28.1211 18.0708 28.521 18.1503 28.9249 18.1503ZM19.4957 32C18.0132 32 16.564 31.5604 15.3313 30.7367C14.0986 29.9131 13.1379 28.7424 12.5706 27.3728C12.0032 26.0031 11.8548 24.496 12.144 23.042C12.4333 21.588 13.1472 20.2523 14.1954 19.2041C15.2437 18.1558 16.5793 17.4419 18.0334 17.1527C19.4874 16.8634 20.9945 17.0119 22.3642 17.5792C23.7338 18.1465 24.9045 19.1073 25.7281 20.34C26.5517 21.5726 26.9914 23.0218 26.9914 24.5043C26.9914 25.4887 26.7975 26.4634 26.4208 27.3728C26.0441 28.2823 25.492 29.1086 24.796 29.8046C24.0999 30.5007 23.2736 31.0528 22.3642 31.4295C21.4548 31.8062 20.48 32 19.4957 32Z" fill="white"/>
</svg>
