<svg width="44" height="44" viewBox="0 0 44 44" fill="none" xmlns="http://www.w3.org/2000/svg">
<circle cx="22" cy="22" r="22" fill="black"/>
<path d="M11.0005 18H14.3012C15.1007 18 15.7149 18.1695 16.1435 18.5086C16.572 18.8477 16.7863 19.3306 16.7863 19.9574C16.7863 20.789 16.4872 21.4254 15.8892 21.8668C15.2909 22.3082 14.4322 22.5289 13.3129 22.5289H11.5953L11.1156 24.8509H9.59961L11.0005 18ZM13.5048 21.3295C14.0676 21.3295 14.501 21.2207 14.8049 21.0033C15.1086 20.7859 15.2607 20.4789 15.2607 20.0821C15.2607 19.7751 15.1552 19.5512 14.9441 19.4104C14.7329 19.2698 14.4003 19.1993 13.9462 19.1993H12.2766L11.8352 21.3295H13.5048Z" fill="white"/>
<path d="M18.1451 24.9851C17.6077 24.9851 17.1839 24.8619 16.8738 24.6158C16.5635 24.3696 16.4084 24.0353 16.4084 23.6131C16.4084 22.4554 17.4159 21.8476 19.4309 21.79L20.851 21.7517C20.8894 21.5598 20.9086 21.4191 20.9086 21.3295C20.9086 20.901 20.531 20.6866 19.7763 20.6866C19.079 20.6866 18.644 20.8914 18.4714 21.3007L17.176 21.1759C17.4639 20.1845 18.3658 19.6887 19.8818 19.6887C20.6494 19.6887 21.2379 19.8216 21.6473 20.0869C22.0566 20.3524 22.2614 20.7314 22.2614 21.224C22.2614 21.3967 22.2389 21.5823 22.1943 21.7805L21.5706 24.8509H20.2465L20.3809 24.1792C20.0033 24.467 19.642 24.6734 19.2966 24.7981C18.9511 24.9228 18.5673 24.9851 18.1451 24.9851ZM20.6782 22.6056L19.4788 22.6343C18.9094 22.6472 18.4888 22.7206 18.2171 22.855C17.9452 22.9893 17.8093 23.1876 17.8093 23.4499C17.8093 23.6227 17.8797 23.7555 18.0205 23.8481C18.1611 23.9409 18.3659 23.9872 18.6346 23.9872C18.8776 23.9872 19.1222 23.9553 19.3686 23.8913C19.6148 23.8275 19.8307 23.7377 20.0163 23.6227C20.1761 23.5267 20.3121 23.4067 20.424 23.2628C20.5359 23.1189 20.6078 22.9639 20.6399 22.7975L20.6782 22.6056Z" fill="white"/>
<path d="M25.4362 25.0043C24.918 25.0043 24.4622 24.9164 24.0689 24.7405C23.6755 24.5646 23.3699 24.3087 23.1526 23.9729C22.935 23.6371 22.8264 23.2422 22.8264 22.7879C22.8264 22.1804 22.9574 21.643 23.2198 21.176C23.482 20.7091 23.861 20.3445 24.3568 20.0822C24.8525 19.82 25.433 19.6887 26.0983 19.6887C26.5333 19.6887 26.9266 19.7607 27.2785 19.9046C27.6303 20.0485 27.9181 20.2549 28.1421 20.5235C28.3659 20.7921 28.5067 21.1121 28.5642 21.483L27.125 21.6461C27.0098 21.0704 26.6388 20.7826 26.0119 20.7826C25.5001 20.7826 25.0875 20.957 24.7741 21.3055C24.4607 21.6542 24.304 22.1163 24.304 22.692C24.304 23.0822 24.4127 23.3829 24.6302 23.5939C24.8476 23.805 25.1579 23.9106 25.5609 23.9106C26.2645 23.9106 26.7186 23.6195 26.9234 23.0374H28.3819C28.273 23.4596 28.0892 23.8162 27.8301 24.1072C27.571 24.3983 27.24 24.6206 26.837 24.774C26.4341 24.9276 25.9671 25.0043 25.4362 25.0043Z" fill="white"/>
<path d="M31.1272 24.9468C30.0333 24.9468 29.4864 24.5279 29.4864 23.6898C29.4864 23.5363 29.5087 23.3477 29.5535 23.1237L30.0045 20.9072H29.0354L29.2561 19.8422H30.2252L30.3801 19.0733L31.9235 18.5085L31.6549 19.8423H33.2956L33.0749 20.9073H31.4342L30.9928 23.047C30.9672 23.1751 30.9544 23.2806 30.9544 23.3637C30.9544 23.6837 31.1718 23.8435 31.6069 23.8435C31.8243 23.8435 32.0675 23.8084 32.3361 23.7379L32.4897 24.755C32.0162 24.8828 31.5621 24.9468 31.1272 24.9468Z" fill="white"/>
<path d="M34.3884 20.6934L34.2537 20.4628H34.0731V20.6934H33.9401V20.0767H34.2433C34.4155 20.0767 34.5015 20.1409 34.5015 20.2693C34.5015 20.3108 34.4919 20.3454 34.4726 20.373C34.4533 20.4007 34.4238 20.4222 34.3841 20.4378L34.5395 20.6934H34.3884ZM34.2329 20.3566C34.2784 20.3566 34.312 20.3495 34.3336 20.3355C34.3551 20.3213 34.366 20.299 34.366 20.2685C34.366 20.238 34.3558 20.2161 34.3353 20.2028C34.3148 20.1896 34.2813 20.183 34.2346 20.183H34.0731V20.3567H34.2329V20.3566Z" fill="white"/>
<path d="M34.2075 20.9945C33.8743 20.9945 33.6032 20.7234 33.6032 20.3902C33.6032 20.057 33.8743 19.7859 34.2075 19.7859C34.5407 19.7859 34.8118 20.057 34.8118 20.3902C34.8118 20.7234 34.5408 20.9945 34.2075 20.9945ZM34.2075 19.8819C33.9273 19.8819 33.6993 20.1099 33.6993 20.3901C33.6993 20.6703 33.9273 20.8983 34.2075 20.8983C34.4877 20.8983 34.7157 20.6703 34.7157 20.3901C34.7157 20.1099 34.4878 19.8819 34.2075 19.8819Z" fill="white"/>
</svg>
