<svg width="44" height="44" viewBox="0 0 44 44" fill="none" xmlns="http://www.w3.org/2000/svg">
<circle cx="22" cy="22" r="22" fill="#F2FE67"/>
<rect x="4" y="4" width="36" height="36" rx="18" fill="#F2FE67"/>
<mask id="mask0_3650_22765" style="mask-type:alpha" maskUnits="userSpaceOnUse" x="4" y="4" width="36" height="36">
<rect x="4" y="4" width="36" height="36" rx="18" fill="#F2FE67"/>
</mask>
<g mask="url(#mask0_3650_22765)">
<path fill-rule="evenodd" clip-rule="evenodd" d="M21.558 -12.8078C23.8693 -13.8351 26.5628 -12.647 27.3626 -10.2476L29.5416 -3.71066C30.9557 -2.48255 31.7716 -0.699334 31.7716 1.17986V17.3761C31.7716 18.8318 30.5915 20.0119 29.1358 20.0119C29.0927 20.0119 29.0498 20.0108 29.0072 20.0088V26.9849C29.0072 28.0443 29.7668 28.9511 30.8098 29.1368L31.7721 29.3082C32.8876 29.5069 33.7002 30.4769 33.7002 31.61C33.7002 31.8865 33.6512 32.1554 33.56 32.4059C33.5677 32.4529 33.5716 32.5002 33.5716 32.5477C33.5716 34.2875 28.362 35.6978 21.9357 35.6978C15.5094 35.6978 10.2998 34.2875 10.2998 32.5477C10.2998 31.0771 14.0222 29.8419 19.0554 29.4949L19.167 14.4956C17.855 13.2172 17.0624 11.4117 17.1287 9.43003L17.4788 -1.03404C17.4987 -1.62922 17.7244 -2.19907 18.1175 -2.6464L19.2551 -3.94086C19.3117 -4.00527 19.3402 -4.08965 19.3342 -4.17518L19.0242 -8.59278C18.898 -10.3909 19.9108 -12.0757 21.558 -12.8078ZM23.1571 19.4371V30.9207C22.9647 30.9561 22.7494 30.9723 22.5151 30.9698C22.0613 30.9649 21.5891 30.8902 21.1726 30.7958C20.8555 30.7239 20.5916 30.4099 20.5949 29.9636L20.6782 18.761C21.2112 19.0113 22.4236 19.3992 23.1571 19.4371ZM26.5001 19.819C26.5001 20.4547 26.9013 20.9968 27.4643 21.2057V26.9849C27.4643 28.792 28.7602 30.339 30.5393 30.6558L31.5016 30.8272C31.881 30.8948 32.1573 31.2246 32.1573 31.61C32.1573 31.9888 31.8998 32.2841 31.5663 32.3396C29.9547 32.608 27.1596 32.9545 25.0012 32.6277C24.8585 32.6061 24.7 32.4637 24.7 32.212V15.6882C24.7 15.2357 24.3332 14.8689 23.8808 14.8689C20.9334 14.8689 18.5721 12.4274 18.6707 9.48162L19.0208 -0.982448C19.0288 -1.22072 19.1191 -1.44884 19.2765 -1.62792L20.4141 -2.92238C20.7428 -3.29643 20.9081 -3.78645 20.8733 -4.28319L20.5633 -8.70078C20.4825 -9.85139 21.1306 -10.9295 22.1846 -11.3979C23.6636 -12.0553 25.3871 -11.295 25.8989 -9.75965L28.1351 -3.05109C28.1889 -2.88981 28.2872 -2.74707 28.4188 -2.63942C29.5643 -1.70217 30.2287 -0.300232 30.2287 1.17986V17.3761C30.2287 17.9797 29.7394 18.469 29.1358 18.469C28.5322 18.469 28.0429 17.9797 28.0429 17.3761V2.39731H26.5V17.3761L26.5001 17.3869V19.819Z" fill="black"/>
<path fill-rule="evenodd" clip-rule="evenodd" d="M23.1462 19.4376V30.9212C22.9537 30.9565 22.7385 30.9728 22.5042 30.9703C22.0503 30.9654 21.5781 30.8907 21.1616 30.7963C20.8446 30.7244 20.5806 30.4104 20.5839 29.9641L20.6672 18.7615C21.2003 19.0118 22.4127 19.3997 23.1462 19.4376ZM26.4891 19.8195C26.4891 20.4552 26.8903 20.9972 27.4534 21.2062V26.9854C27.4534 28.7925 28.7492 30.3395 30.5283 30.6563L31.4906 30.8277C31.87 30.8952 32.1463 31.2251 32.1463 31.6105C32.1463 31.9893 31.8889 32.2846 31.5553 32.3401C29.9437 32.6085 27.1486 32.955 24.9902 32.6282C24.8475 32.6066 24.689 32.4641 24.689 32.2125V15.6887C24.689 15.2362 24.3223 14.8694 23.8698 14.8694C20.9224 14.8694 18.5612 12.4278 18.6597 9.48211L19.0098 -0.981961C19.0178 -1.22023 19.1082 -1.44835 19.2655 -1.62743L20.4031 -2.92189C20.7318 -3.29594 20.8972 -3.78597 20.8623 -4.2827L20.5523 -8.7003C20.4716 -9.85091 21.1196 -10.929 22.1737 -11.3975C23.6526 -12.0548 25.3761 -11.2946 25.8879 -9.75916L28.1241 -3.0506C28.1779 -2.88932 28.2763 -2.74658 28.4078 -2.63893C29.5534 -1.70168 30.2177 -0.299745 30.2177 1.18035V17.3766C30.2177 17.9802 29.7284 18.4695 29.1248 18.4695C28.5212 18.4695 28.032 17.9802 28.032 17.3766V2.3978H26.4891V17.3766L26.4891 17.3874V19.8195Z" fill="#F2FE67"/>
</g>
</svg>
