<?xml version="1.0" standalone="no"?>
<!DOCTYPE svg PUBLIC "-//W3C//DTD SVG 20010904//EN"
 "http://www.w3.org/TR/2001/REC-SVG-20010904/DTD/svg10.dtd">
<svg version="1.0" xmlns="http://www.w3.org/2000/svg"
 width="700.000000pt" height="700.000000pt" viewBox="0 0 700.000000 700.000000"
 preserveAspectRatio="xMidYMid meet">
<metadata>
Created by potrace 1.14, written by Peter Selinger 2001-2017
</metadata>
<g transform="translate(0.000000,700.000000) scale(0.100000,-0.100000)"
fill="#000000" stroke="none">
<path d="M3266 5986 c-169 -170 -96 -859 141 -1318 118 -228 245 -328 341
-268 45 28 87 119 103 225 15 103 7 353 -16 480 -89 501 -312 915 -491 915
-36 0 -49 -6 -78 -34z"/>
<path d="M5035 5023 c-258 -55 -520 -245 -686 -496 -107 -164 -160 -326 -161
-497 -2 -169 46 -293 151 -393 110 -105 221 -142 406 -134 139 5 239 33 370
100 155 80 335 240 432 382 144 213 210 465 169 653 -42 197 -180 342 -367
387 -80 19 -222 18 -314 -2z"/>
<path d="M1400 4730 c-69 -15 -148 -58 -165 -90 -35 -67 -10 -134 82 -222 117
-111 304 -211 546 -292 250 -84 479 -122 676 -113 145 7 213 27 263 77 66 66
48 140 -59 242 -169 160 -495 304 -858 379 -113 23 -410 35 -485 19z"/>
<path d="M2395 3271 c-410 -118 -1034 -767 -1035 -1076 0 -59 27 -111 66 -125
176 -67 577 168 912 535 132 145 252 332 287 449 18 60 19 142 2 176 -28 57
-120 74 -232 41z"/>
<path d="M4232 3019 c-74 -14 -149 -54 -166 -88 -21 -40 -20 -66 4 -115 118
-245 856 -537 1355 -536 218 1 345 57 345 155 0 89 -155 232 -365 338 -227
113 -529 207 -783 242 -120 16 -319 18 -390 4z"/>
<path d="M3244 2711 c-36 -16 -73 -69 -95 -139 -31 -94 -37 -338 -15 -511 36
-272 115 -543 221 -756 106 -214 207 -325 296 -325 252 0 212 833 -66 1405
-120 246 -246 366 -341 326z"/>
</g>
</svg>
