<svg width="40" height="40" viewBox="0 0 40 40" fill="none" xmlns="http://www.w3.org/2000/svg">
<rect width="40" height="40" rx="20" fill="#F5B2C6"/>
<path d="M23.5799 20.0019C23.5799 21.9819 21.9799 23.5819 19.9999 23.5819C18.0199 23.5819 16.4199 21.9819 16.4199 20.0019C16.4199 18.0219 18.0199 16.4219 19.9999 16.4219C21.9799 16.4219 23.5799 18.0219 23.5799 20.0019Z" stroke="#9B1F69" stroke-width="2" stroke-linecap="round" stroke-linejoin="round"/>
<path d="M19.9998 28.2688C23.5298 28.2688 26.8198 26.1887 29.1098 22.5887C30.0098 21.1787 30.0098 18.8087 29.1098 17.3987C26.8198 13.7987 23.5298 11.7188 19.9998 11.7188C16.4698 11.7188 13.1798 13.7987 10.8898 17.3987C9.98984 18.8087 9.98984 21.1787 10.8898 22.5887C13.1798 26.1887 16.4698 28.2688 19.9998 28.2688Z" stroke="#9B1F69" stroke-width="2" stroke-linecap="round" stroke-linejoin="round"/>
</svg>

