<svg class="account-ledger-icon" width="40" height="40" viewBox="0 0 40 40" fill="none" xmlns="http://www.w3.org/2000/svg">
<rect width="40" height="40" rx="20" fill="#8755D5"/>
<path d="M19.1673 10C17.3264 10 15.834 11.4924 15.834 13.3333V20.085C16.3124 19.5966 16.876 19.192 17.5007 18.8952V13.3333C17.5007 12.4129 18.2468 11.6667 19.1673 11.6667H20.834C21.7545 11.6667 22.5007 12.4129 22.5007 13.3333V18.8945C23.1253 19.1912 23.6889 19.5956 24.1673 20.0837V13.3333C24.1673 11.4924 22.6749 10 20.834 10H19.1673Z" fill="#FFAEE3"/>
<path fill-rule="evenodd" clip-rule="evenodd" d="M15.834 24.1667C15.834 21.8655 17.6995 20 20.0007 20C22.3018 20 24.1673 21.8655 24.1673 24.1667V28.4091C24.1673 29.2877 23.455 30 22.5764 30H17.4249C16.5463 30 15.834 29.2877 15.834 28.4091V24.1667ZM20.0007 21.6667C18.6199 21.6667 17.5007 22.786 17.5007 24.1667V28.3333H22.5007V24.1667C22.5007 22.786 21.3814 21.6667 20.0007 21.6667Z" fill="#FFAEE3"/>
<path d="M20.8327 24.1668C20.8327 24.6271 20.4596 25.0002 19.9993 25.0002C19.5391 25.0002 19.166 24.6271 19.166 24.1668C19.166 23.7066 19.5391 23.3335 19.9993 23.3335C20.4596 23.3335 20.8327 23.7066 20.8327 24.1668Z" fill="#FFAEE3"/>
</svg>
