<svg class="account-default-icon" width="40" height="40" viewBox="0 0 40 40" fill="none" xmlns="http://www.w3.org/2000/svg">
<rect width="40" height="40" rx="20" fill="#8BF4DB"/>
<path fill-rule="evenodd" clip-rule="evenodd" d="M10.666 13.3335C10.666 11.861 11.8597 10.6665 13.3327 10.6665H23.3327C23.885 10.6665 24.3327 11.1142 24.3327 11.6665C24.3327 12.2188 23.885 12.6665 23.3327 12.6665H13.3327C12.9647 12.6665 12.666 12.9651 12.666 13.3335C12.666 13.7014 12.9642 13.9998 13.3327 13.9998H22.4993C22.508 13.9998 22.5166 13.9999 22.5251 14.0002H25.3327C27.5418 14.0002 29.3327 15.791 29.3327 18.0002V25.3335C29.3327 27.5426 27.5418 29.3335 25.3327 29.3335H14.666C12.4569 29.3335 10.666 27.5426 10.666 25.3335V13.3335ZM12.666 15.9158V25.3335C12.666 26.4381 13.5614 27.3335 14.666 27.3335H25.3327C26.4373 27.3335 27.3327 26.4381 27.3327 25.3335V18.0002C27.3327 16.8956 26.4373 16.0002 25.3327 16.0002H20.9253C20.9167 16.0002 20.9081 16.0001 20.8995 15.9998H13.3327C13.1025 15.9998 12.8791 15.9707 12.666 15.9158ZM20.666 21.6665C20.666 21.1142 21.1137 20.6665 21.666 20.6665H23.3327C23.885 20.6665 24.3327 21.1142 24.3327 21.6665C24.3327 22.2188 23.885 22.6665 23.3327 22.6665H21.666C21.1137 22.6665 20.666 22.2188 20.666 21.6665Z" fill="#136880"/>
</svg>
