<svg width="40" height="40" viewBox="0 0 40 40" fill="none" xmlns="http://www.w3.org/2000/svg">
<rect width="40" height="40" rx="20" fill="#FDC8C8"/>
<path d="M19.9999 20.5024C21.1045 20.5024 21.9999 19.607 21.9999 18.5024C21.9999 17.3979 21.1045 16.5024 19.9999 16.5024C18.8953 16.5024 17.9999 17.3979 17.9999 18.5024C17.9999 19.607 18.8953 20.5024 19.9999 20.5024ZM19.9999 20.5024V23.5024M18.4899 10.2325L11.4099 13.5024L11.4099 22.5525C11.4099 23.7325 12.1899 25.2825 13.1399 25.9925L17.4399 29.2025C18.8499 30.2625 21.1699 30.2625 22.5799 29.2025L26.8799 25.9925C27.8299 25.2825 28.6099 23.7325 28.6099 22.5525V13.5024L21.5299 10.2325C20.6799 9.9225 19.3199 9.9225 18.4899 10.2325Z" stroke="#B02525" stroke-width="2" stroke-linecap="round" stroke-linejoin="round"/>
</svg>

