<svg class="account-rekeyed-icon" width="40" height="40" viewBox="0 0 40 40" fill="none" xmlns="http://www.w3.org/2000/svg">
<rect width="40" height="40" rx="20" fill="#8755D5"/>
<g clip-path="url(#clip0_10521_47341)">
<g clip-path="url(#clip1_10521_47341)">
<path d="M13.1673 10C11.3264 10 9.83398 11.4924 9.83398 13.3333V20.085C10.3124 19.5966 10.876 19.192 11.5007 18.8952V13.3333C11.5007 12.4129 12.2468 11.6667 13.1673 11.6667H14.834C15.7545 11.6667 16.5007 12.4129 16.5007 13.3333V18.8945C17.1253 19.1912 17.6889 19.5956 18.1673 20.0837V13.3333C18.1673 11.4924 16.6749 10 14.834 10H13.1673Z" fill="#FFAEE3"/>
<path fill-rule="evenodd" clip-rule="evenodd" d="M9.83398 24.1667C9.83398 21.8655 11.6995 20 14.0007 20C16.3018 20 18.1673 21.8655 18.1673 24.1667V28.4091C18.1673 29.2877 17.455 30 16.5764 30H11.4249C10.5463 30 9.83398 29.2877 9.83398 28.4091V24.1667ZM14.0007 21.6667C12.6199 21.6667 11.5007 22.786 11.5007 24.1667V28.3333H16.5007V24.1667C16.5007 22.786 15.3814 21.6667 14.0007 21.6667Z" fill="#FFAEE3"/>
<path d="M14.8327 24.1668C14.8327 24.6271 14.4596 25.0002 13.9993 25.0002C13.5391 25.0002 13.166 24.6271 13.166 24.1668C13.166 23.7066 13.5391 23.3335 13.9993 23.3335C14.4596 23.3335 14.8327 23.7066 14.8327 24.1668Z" fill="#FFAEE3"/>
</g>
<path d="M27.8809 24L26.3809 22L24.8809 24" stroke="#F5B2C6" stroke-width="2"/>
<path d="M26.5391 23.2955L26.5391 28.3289C26.5391 28.6995 26.2386 29 25.8679 29L20.499 29" stroke="#F5B2C6" stroke-width="2"/>
<path d="M22.8809 16L24.3809 18L25.8809 16" stroke="#F5B2C6" stroke-width="2"/>
<path d="M24.1445 16.7045V11.6711C24.1445 11.3005 24.445 11 24.8157 11H30.1846" stroke="#F5B2C6" stroke-width="2"/>
</g>
<defs>
<clipPath id="clip0_10521_47341">
<rect width="22" height="20" fill="white" transform="translate(9 10)"/>
</clipPath>
<clipPath id="clip1_10521_47341">
<rect width="10" height="20" fill="white" transform="translate(9 10)"/>
</clipPath>
</defs>
</svg>

