<svg width="40" height="40" viewBox="0 0 40 40" fill="none" xmlns="http://www.w3.org/2000/svg">
<rect width="40" height="40" rx="20" fill="#8BF4DB"/>
<path d="M20.0001 20.5005C21.1047 20.5005 22.0001 19.6051 22.0001 18.5005C22.0001 17.3959 21.1047 16.5005 20.0001 16.5005C18.8956 16.5005 18.0001 17.3959 18.0001 18.5005C18.0001 19.6051 18.8956 20.5005 20.0001 20.5005ZM20.0001 20.5005V23.5005M18.4902 10.2305L11.4102 13.5005L11.4102 22.5505C11.4102 23.7305 12.1902 25.2805 13.1402 25.9905L17.4402 29.2005C18.8502 30.2605 21.1702 30.2605 22.5802 29.2005L26.8802 25.9905C27.8302 25.2805 28.6102 23.7305 28.6102 22.5505V13.5005L21.5302 10.2305C20.6802 9.92055 19.3202 9.92055 18.4902 10.2305Z" stroke="#136880" stroke-width="2" stroke-linecap="round" stroke-linejoin="round"/>
</svg>

