<svg class="add-funds-icon" width="20" height="20" viewBox="0 0 20 20" fill="none" xmlns="http://www.w3.org/2000/svg">
<path fill-rule="evenodd" clip-rule="evenodd" d="M9.68113 3.59715C6.51649 3.47557 3.57256 5.54967 2.71893 8.73544C1.72788 12.4341 3.92566 16.2408 7.62432 17.2318C10.8101 18.0854 14.0783 16.573 15.5553 13.7715C15.77 13.3644 16.274 13.2084 16.6811 13.423C17.0882 13.6377 17.2443 14.1417 17.0296 14.5488C15.1978 18.0232 11.1472 19.9012 7.19295 18.8417C2.60518 17.6124 -0.120232 12.8918 1.10906 8.30407C2.16859 4.34983 5.82032 1.78093 9.74512 1.93171C10.205 1.94938 10.5635 2.33653 10.5458 2.79643C10.5282 3.25632 10.141 3.61482 9.68113 3.59715ZM14.5833 3.33336C15.0435 3.33336 15.4166 3.70646 15.4166 4.1667V6.6667H17.9166C18.3768 6.6667 18.7499 7.03979 18.7499 7.50003C18.7499 7.96027 18.3768 8.33336 17.9166 8.33336H15.4166V10.8334C15.4166 11.2936 15.0435 11.6667 14.5833 11.6667C14.123 11.6667 13.7499 11.2936 13.7499 10.8334V8.33336H11.2499C10.7897 8.33336 10.4166 7.96027 10.4166 7.50003C10.4166 7.03979 10.7897 6.6667 11.2499 6.6667H13.7499V4.1667C13.7499 3.70646 14.123 3.33336 14.5833 3.33336Z" fill="#6B46FE"/>
</svg>
