<svg class="arrow-right-icon" width="24" height="24" viewBox="0 0 24 24" fill="none" xmlns="http://www.w3.org/2000/svg">
<path fill-rule="evenodd" clip-rule="evenodd" d="M13.7929 6.29289C14.1834 5.90237 14.8166 5.90237 15.2071 6.29289L20.2071 11.2929C20.3946 11.4804 20.5 11.7348 20.5 12C20.5 12.2652 20.3946 12.5196 20.2071 12.7071L15.2071 17.7071C14.8166 18.0976 14.1834 18.0976 13.7929 17.7071C13.4024 17.3166 13.4024 16.6834 13.7929 16.2929L17.0858 13L5.5 13C4.94772 13 4.5 12.5523 4.5 12C4.5 11.4477 4.94772 11 5.5 11L17.0858 11L13.7929 7.70711C13.4024 7.31658 13.4024 6.68342 13.7929 6.29289Z" fill="#3C3C49"/>
</svg>
