<svg class="arrow-left-icon" width="24" height="24" viewBox="0 0 24 24" fill="none" xmlns="http://www.w3.org/2000/svg">
<path fill-rule="evenodd" clip-rule="evenodd" d="M11.2071 6.29289C11.5976 6.68342 11.5976 7.31658 11.2071 7.70711L7.91421 11L19.5 11C20.0523 11 20.5 11.4477 20.5 12C20.5 12.5523 20.0523 13 19.5 13L7.91421 13L11.2071 16.2929C11.5976 16.6834 11.5976 17.3166 11.2071 17.7071C10.8166 18.0976 10.1834 18.0976 9.79289 17.7071L4.79289 12.7071C4.60536 12.5196 4.5 12.2652 4.5 12C4.5 11.7348 4.60536 11.4804 4.79289 11.2929L9.79289 6.29289C10.1834 5.90237 10.8166 5.90237 11.2071 6.29289Z" fill="#3C3C49"/>
</svg>
