<svg class="asa-trusted-icon" width="16" height="16" viewBox="0 0 16 16" fill="none" xmlns="http://www.w3.org/2000/svg">
<path d="M6.76377 0.186023L2.70214 1.69021C1.76609 2.03425 1.00098 3.12239 1.00098 4.09851V10.0433C1.00098 10.9874 1.63586 12.2275 2.40912 12.7956L5.90912 15.3639C7.05679 16.212 8.94516 16.212 10.0928 15.3639L13.5928 12.7956C14.3661 12.2275 15.001 10.9874 15.001 10.0433V4.09851C15.001 3.11439 14.2359 2.02625 13.2998 1.68221L9.23818 0.186023C8.54632 -0.0620077 7.43935 -0.0620077 6.76377 0.186023Z" fill="#00B19E"/>
<path fill-rule="evenodd" clip-rule="evenodd" d="M11.4417 4.39359C11.7767 4.63729 11.8506 5.10636 11.6069 5.4413L7.24115 11.4417C7.10001 11.6357 6.87458 11.7505 6.63468 11.7505C6.39478 11.7505 6.16936 11.6357 6.02822 11.4417L4.39359 9.19505C4.14989 8.86011 4.22386 8.39104 4.5588 8.14734C4.89374 7.90364 5.36282 7.97761 5.60652 8.31255L6.63468 9.72569L10.394 4.5588C10.6377 4.22386 11.1068 4.14989 11.4417 4.39359Z" fill="white"/>
</svg>
