<svg class="asa-suspicious-icon" width="16" height="16" viewBox="0 0 16 16" fill="none" xmlns="http://www.w3.org/2000/svg">
<path d="M10.259 1C11.3356 1 12.3296 1.57686 12.8638 2.51158L15.1495 6.51158C15.6765 7.43388 15.6765 8.56612 15.1495 9.48842L12.8638 13.4884C12.3296 14.4231 11.3356 15 10.259 15H5.74097C4.6644 15 3.67037 14.4231 3.13624 13.4884L0.850524 9.48842C0.323497 8.56612 0.323496 7.43388 0.850524 6.51158L3.13624 2.51158C3.67037 1.57686 4.6644 1 5.74097 1L10.259 1Z" fill="#F65549"/>
<path fill-rule="evenodd" clip-rule="evenodd" d="M8 3.75C8.41421 3.75 8.75 4.08579 8.75 4.5L8.75 8.5C8.75 8.91421 8.41421 9.25 8 9.25C7.58579 9.25 7.25 8.91421 7.25 8.5L7.25 4.5C7.25 4.08579 7.58579 3.75 8 3.75Z" fill="white"/>
<circle cx="8" cy="11.5" r="1" fill="white"/>
</svg>
