<svg class="asset-icon" width="24" height="24" viewBox="0 0 24 24" fill="none" xmlns="http://www.w3.org/2000/svg">
<path fill-rule="evenodd" clip-rule="evenodd" d="M5.40488 8.59632C5.10006 8.8537 5.09961 8.9943 5.09961 9C5.09961 9.0057 5.10006 9.1463 5.40488 9.40368C5.70505 9.65715 6.19871 9.93046 6.89625 10.1796C8.28261 10.6747 10.2636 11 12.4996 11C14.7356 11 16.7166 10.6747 18.103 10.1796C18.8005 9.93046 19.2942 9.65715 19.5943 9.40368C19.8992 9.1463 19.8996 9.0057 19.8996 9C19.8996 8.9943 19.8992 8.8537 19.5943 8.59632C19.2942 8.34285 18.8005 8.06954 18.103 7.82042C16.7166 7.32529 14.7356 7 12.4996 7C10.2636 7 8.28261 7.32529 6.89625 7.82042C6.19871 8.06954 5.70505 8.34285 5.40488 8.59632ZM19.8996 11.5786C19.5528 11.7596 19.1743 11.9207 18.7756 12.0631C17.1218 12.6537 14.9028 13 12.4996 13C10.0964 13 7.87741 12.6537 6.22358 12.0631C5.82489 11.9207 5.44642 11.7596 5.09961 11.5786V14.323C5.1273 14.3559 5.1897 14.4179 5.31948 14.5055C5.62134 14.7094 6.12385 14.9325 6.83463 15.1355C8.24259 15.5378 10.2458 15.8 12.4996 15.8C14.7534 15.8 16.7566 15.5378 18.1646 15.1355C18.8754 14.9325 19.3779 14.7094 19.6797 14.5055C19.8095 14.4179 19.8719 14.3559 19.8996 14.323V11.5786ZM19.9192 14.2955C19.9194 14.2956 19.9186 14.2973 19.9164 14.3008C19.918 14.2973 19.9191 14.2955 19.9192 14.2955ZM5.08 14.2955C5.08015 14.2955 5.08124 14.2973 5.08284 14.3008C5.08066 14.2973 5.07986 14.2956 5.08 14.2955ZM21.8996 9V14.4C21.8996 15.2389 21.3126 15.8161 20.7993 16.1628C20.251 16.5332 19.5233 16.8273 18.714 17.0586C17.0818 17.5249 14.885 17.8 12.4996 17.8C10.1142 17.8 7.91743 17.5249 6.28519 17.0586C5.47588 16.8273 4.74824 16.5332 4.19996 16.1628C3.68659 15.8161 3.09961 15.2389 3.09961 14.4V9C3.09961 8.17728 3.56926 7.52866 4.11457 7.06821C4.66452 6.60384 5.40101 6.23071 6.22358 5.93694C7.87741 5.34628 10.0964 5 12.4996 5C14.9028 5 17.1218 5.34628 18.7756 5.93694C19.5982 6.23071 20.3347 6.60384 20.8846 7.06821C21.43 7.52866 21.8996 8.17728 21.8996 9Z" fill="#3C3C49"/>
</svg>
