<svg class="bluetooth-icon" width="25" height="24" viewBox="0 0 25 24" fill="none" xmlns="http://www.w3.org/2000/svg">
<path fill-rule="evenodd" clip-rule="evenodd" d="M12.8933 1.15981C13.7557 0.757995 14.6361 1.16988 15.2393 1.67052L15.241 1.67194L19.0908 4.88177C19.0909 4.88182 19.0907 4.88172 19.0908 4.88177C20.1016 5.72424 20.1162 7.18176 19.1683 8.05536L19.1663 8.05718L14.8647 12L19.1683 15.9446C20.1162 16.8182 20.1017 18.2756 19.091 19.1181C19.0909 19.1181 19.0911 19.118 19.091 19.1181L15.2393 22.3295C14.6361 22.8301 13.7557 23.242 12.8933 22.8402C12.0281 22.4371 11.7806 21.4954 11.7806 20.71V14.8269L6.81633 19.3772C6.4092 19.7504 5.77663 19.7228 5.40345 19.3157C5.03027 18.9086 5.0578 18.276 5.46493 17.9028L11.7806 12.1139V11.8861L5.46493 6.09716C5.0578 5.72398 5.03027 5.09142 5.40345 4.68428C5.77663 4.27715 6.4092 4.24963 6.81633 4.62281L11.7806 9.17308V3.29001C11.7806 2.50456 12.0281 1.56291 12.8933 1.15981ZM13.7806 13.7193L17.8129 17.4153C17.8127 17.4152 17.8131 17.4155 17.8129 17.4153C17.8406 17.441 17.8531 17.4625 17.8583 17.4746C17.8638 17.487 17.8647 17.496 17.8646 17.5019C17.8645 17.5076 17.8632 17.5154 17.858 17.5261C17.853 17.5364 17.8406 17.5566 17.8104 17.5818L13.962 20.7905C13.9621 20.7903 13.9618 20.7907 13.962 20.7905C13.8974 20.8441 13.8403 20.8849 13.7924 20.9152C13.7854 20.86 13.7806 20.7921 13.7806 20.71V13.7193ZM13.7806 10.2807V3.29001C13.7806 3.20789 13.7854 3.14001 13.7924 3.08484C13.8402 3.11504 13.8967 3.15535 13.9612 3.20886C13.961 3.20865 13.9615 3.20907 13.9612 3.20886L17.8102 6.41805C17.8404 6.4432 17.853 6.4636 17.858 6.4739C17.8632 6.48458 17.8645 6.4924 17.8646 6.49814C17.8647 6.504 17.8638 6.51296 17.8583 6.52544C17.8531 6.5375 17.8411 6.5585 17.8135 6.58408C17.8137 6.58389 17.8133 6.58427 17.8135 6.58408L13.7806 10.2807Z" fill="#3C3C49"/>
</svg>

