<svg width="24" height="24" viewBox="0 0 24 24" fill="none" xmlns="http://www.w3.org/2000/svg">
<path d="M9.87006 5.66912L6.45006 7.74914L4.89007 5.18914C4.32007 4.24914 4.62006 3.00914 5.56006 2.43914C6.50006 1.86914 7.74006 2.16913 8.31006 3.10913L9.87006 5.66912Z" stroke="#E54343" stroke-width="1.5" stroke-linecap="round" stroke-linejoin="round"/>
<path d="M11.8201 9.1596L8.66012 11.0796C6.82012 12.1996 6.26011 14.4596 7.15011 16.2596L9.20011 20.4396C9.86011 21.7896 11.4601 22.2596 12.7401 21.4696L19.1701 17.5596C20.4601 16.7796 20.7701 15.1496 19.8801 13.9396L17.1101 10.1996C15.9101 8.57964 13.6601 8.0396 11.8201 9.1596Z" stroke="#E54343" stroke-width="1.5" stroke-linecap="round" stroke-linejoin="round"/>
<path d="M10.7567 5.09815L5.63208 8.21875L7.71248 11.6351L12.8371 8.51455L10.7567 5.09815Z" stroke="#E54343" stroke-width="1.5" stroke-linecap="round" stroke-linejoin="round"/>
<path d="M14.3101 16.8105L15.9601 19.5206" stroke="#E54343" stroke-width="1.5" stroke-linecap="round" stroke-linejoin="round"/>
<path d="M11.75 18.3691L13.4 21.0792" stroke="#E54343" stroke-width="1.5" stroke-linecap="round" stroke-linejoin="round"/>
<path d="M16.8701 15.25L18.5201 17.96" stroke="#E54343" stroke-width="1.5" stroke-linecap="round" stroke-linejoin="round"/>
</svg>
