<svg class="collectibles-icon" width="24" height="24" viewBox="0 0 24 24" fill="none" xmlns="http://www.w3.org/2000/svg">
<path fill-rule="evenodd" clip-rule="evenodd" d="M12.29 3.69531C11.9415 3.69531 11.6483 3.75703 11.4787 3.833L11.4759 3.83426L5.57366 6.45523C5.23332 6.60538 5.04475 6.75203 4.95326 6.85254C4.93115 6.87683 4.91658 6.89608 4.90713 6.91031C4.91658 6.92455 4.93115 6.94379 4.95326 6.96808C5.04475 7.06859 5.23332 7.21524 5.57366 7.36539L5.57587 7.36637L11.4787 9.98762C11.6483 10.0636 11.9415 10.1253 12.29 10.1253C12.6385 10.1253 12.9317 10.0636 13.1014 9.98763L13.1042 9.98637L19.0042 7.36637L19.0064 7.36539C19.3467 7.21524 19.5353 7.06859 19.6268 6.96808C19.6489 6.94379 19.6635 6.92454 19.6729 6.91031C19.6635 6.89608 19.6489 6.87683 19.6268 6.85254C19.5353 6.75203 19.3467 6.60538 19.0064 6.45523L19.0042 6.45425L13.1042 3.83425L13.1014 3.833C12.9317 3.75703 12.6385 3.69531 12.29 3.69531ZM13.917 2.00689C13.417 1.7834 12.8259 1.69531 12.29 1.69531C11.7541 1.69531 11.1629 1.78341 10.6629 2.00693L10.6614 2.00763L4.76638 4.62539L4.76522 4.62591C3.81517 5.04532 2.89502 5.79373 2.89502 6.91031C2.89502 8.02695 3.81526 8.77537 4.76536 9.19478L4.76638 9.19523L10.6614 11.813L10.663 11.8137C11.163 12.0372 11.7541 12.1253 12.29 12.1253C12.8259 12.1253 13.417 12.0372 13.9169 11.8138L13.9187 11.813L19.8137 9.19523L19.8146 9.1948C20.7648 8.77539 21.685 8.02696 21.685 6.91031C21.685 5.79371 20.7648 5.0453 19.8148 4.62589L19.8137 4.62539L13.9187 2.00763L13.917 2.00689ZM3.5 10C4.05228 10 4.5 10.4477 4.5 11C4.5 11.1845 4.57588 11.4504 4.74945 11.7171C4.92301 11.9839 5.13509 12.1607 5.30393 12.2352L5.30639 12.2363L12.0945 15.2555C12.3592 15.3723 12.653 15.3693 12.8989 15.2584L12.9036 15.2563L19.6936 12.2363L19.6961 12.2352C19.8649 12.1607 20.077 11.9839 20.2506 11.7171C20.4241 11.4504 20.5 11.1845 20.5 11C20.5 10.4477 20.9477 10 21.5 10C22.0523 10 22.5 10.4477 22.5 11C22.5 11.6555 22.2609 12.2946 21.9269 12.8079C21.5932 13.3208 21.1058 13.7987 20.5052 14.0642L20.5039 14.0648L13.7211 17.0816L13.7186 17.0827C12.9453 17.4306 12.0597 17.427 11.2855 17.0845L4.49607 14.0648L4.49467 14.0642C3.89416 13.7986 3.40673 13.3207 3.07305 12.8079C2.73912 12.2946 2.5 11.6555 2.5 11C2.5 10.4477 2.94772 10 3.5 10ZM3.5 15C4.05228 15 4.5 15.4477 4.5 16C4.5 16.5311 4.81402 17.0159 5.30758 17.2368L12.0945 20.2555C12.3592 20.3723 12.653 20.3693 12.8989 20.2584L12.9036 20.2563L19.6919 17.2371C20.1855 17.0162 20.5 16.5312 20.5 16C20.5 15.4477 20.9477 15 21.5 15C22.0523 15 22.5 15.4477 22.5 16C22.5 17.3287 21.7143 18.5237 20.5081 19.0629L13.7211 22.0816L13.7186 22.0827C12.9453 22.4306 12.0597 22.427 11.2855 22.0845L4.49187 19.0629C3.28575 18.5237 2.5 17.3287 2.5 16C2.5 15.4477 2.94772 15 3.5 15Z" fill="#3C3C49"/>
</svg>
