<svg width="16" height="16" viewBox="0 0 16 16" fill="none" xmlns="http://www.w3.org/2000/svg">
<path fill-rule="evenodd" clip-rule="evenodd" d="M2.66675 4.66665C2.66675 3.56513 3.56523 2.66666 4.66675 2.66666C5.76827 2.66666 6.66675 3.56513 6.66675 4.66665V5.33333H9.33341V4.66665C9.33341 3.56513 10.2319 2.66666 11.3334 2.66666C12.4349 2.66666 13.3334 3.56513 13.3334 4.66665C13.3334 5.76817 12.435 6.66666 11.3334 6.66666H10.6667V9.33333H11.3334C12.435 9.33333 13.3334 10.2318 13.3334 11.3333C13.3334 12.4349 12.4349 13.3333 11.3334 13.3333C10.2319 13.3333 9.33341 12.4349 9.33341 11.3333V10.6667H6.66675V11.3333C6.66675 12.4349 5.76827 13.3333 4.66675 13.3333C3.56523 13.3333 2.66675 12.4349 2.66675 11.3333C2.66675 10.2318 3.56521 9.33333 4.66675 9.33333H5.33341V6.66666H4.66675C3.56521 6.66666 2.66675 5.76817 2.66675 4.66665ZM5.33341 5.33333V4.66665C5.33341 4.30152 5.0319 4 4.66675 4C4.30159 4 4.00008 4.30152 4.00008 4.66665C4.00008 5.0318 4.30161 5.33333 4.66675 5.33333H5.33341ZM6.66675 6.66666V9.33333H9.33341V6.66666H6.66675ZM5.33341 10.6667H4.66675C4.30161 10.6667 4.00008 10.9682 4.00008 11.3333C4.00008 11.6985 4.30159 12 4.66675 12C5.0319 12 5.33341 11.6985 5.33341 11.3333V10.6667ZM10.6667 10.6667V11.3333C10.6667 11.6985 10.9683 12 11.3334 12C11.6986 12 12.0001 11.6985 12.0001 11.3333C12.0001 10.9682 11.6986 10.6667 11.3334 10.6667H10.6667ZM10.6667 5.33333H11.3334C11.6986 5.33333 12.0001 5.0318 12.0001 4.66665C12.0001 4.30152 11.6986 4 11.3334 4C10.9683 4 10.6667 4.30152 10.6667 4.66665V5.33333Z" fill="#9D9DAE"/>
</svg>
