<svg class="copy-icon" width="24" height="24" viewBox="0 0 24 24" fill="none" xmlns="http://www.w3.org/2000/svg">
<path fill-rule="evenodd" clip-rule="evenodd" d="M13.0696 3.60086C12.7301 3.94032 12.4688 4.57363 12.4688 5.85V6.00214C14.3311 6.03438 15.8818 6.43636 16.9571 7.51164C18.0324 8.58692 18.4344 10.1377 18.4666 12H18.6188C19.8951 12 20.5284 11.7386 20.8679 11.3991C21.2074 11.0597 21.4688 10.4264 21.4688 9.15V5.85C21.4688 4.57363 21.2074 3.94031 20.8679 3.60086C20.5284 3.2614 19.8951 3 18.6188 3H15.3187C14.0424 3 13.4091 3.2614 13.0696 3.60086ZM10.4688 6V5.85C10.4688 4.37637 10.7574 3.08468 11.6554 2.18664C12.5534 1.2886 13.8451 1 15.3187 1H18.6188C20.0924 1 21.3841 1.2886 22.2821 2.18664C23.1801 3.08469 23.4688 4.37637 23.4688 5.85V9.15C23.4688 10.6236 23.1801 11.9153 22.2821 12.8134C21.3841 13.7114 20.0924 14 18.6188 14H18.4688V16.75C18.4688 18.7236 18.0801 20.3653 16.9571 21.4884C15.8341 22.6114 14.1924 23 12.2188 23H7.71875C5.74512 23 4.10343 22.6114 2.98039 21.4884C1.85735 20.3653 1.46875 18.7236 1.46875 16.75V12.25C1.46875 10.2764 1.85735 8.63469 2.98039 7.51164C4.10343 6.3886 5.74512 6 7.71875 6H10.4688ZM7.71875 8C5.94238 8 4.95907 8.3614 4.39461 8.92586C3.83015 9.49031 3.46875 10.4736 3.46875 12.25V16.75C3.46875 18.5264 3.83015 19.5097 4.39461 20.0741C4.95907 20.6386 5.94238 21 7.71875 21H12.2188C13.9951 21 14.9784 20.6386 15.5429 20.0741C16.1074 19.5097 16.4687 18.5264 16.4687 16.75V12.25C16.4687 10.4736 16.1074 9.49031 15.5429 8.92586C14.9784 8.3614 13.9951 8 12.2188 8H7.71875Z" fill="#3C3C49"/>
</svg>
