<svg width="28" height="28" viewBox="0 0 28 28" fill="none" xmlns="http://www.w3.org/2000/svg">
<circle cx="14" cy="14" r="14" fill="var(--helper-blue-100)"/>
<path fill-rule="evenodd" clip-rule="evenodd" d="M18.1687 10.7469L19.1115 9.80414L18.1687 8.86133L13.1718 13.8582C11.8776 13.0008 10.1166 13.1422 8.97631 14.2825C7.67456 15.5842 7.67456 17.6948 8.97631 18.9965C10.2781 20.2983 12.3886 20.2983 13.6904 18.9965C14.8307 17.8562 14.9721 16.0953 14.1146 14.801L15.576 13.3397L17.2259 14.9896L18.1687 14.0468L16.5188 12.3969L17.2259 11.6898L18.8758 13.3397L19.8186 12.3969L18.1687 10.7469ZM12.7475 15.2253C11.9665 14.4442 10.7002 14.4442 9.91912 15.2253C9.13807 16.0063 9.13807 17.2727 9.91912 18.0537C10.7002 18.8348 11.9665 18.8348 12.7475 18.0537C13.5286 17.2727 13.5286 16.0063 12.7475 15.2253Z" fill="var(--helper-blue-900)"/>
</svg>
