<svg class="danger-icon" width="24" height="24" viewBox="0 0 24 24" fill="none" xmlns="http://www.w3.org/2000/svg">
<path fill-rule="evenodd" clip-rule="evenodd" d="M12.5015 4C11.8036 4 10.9075 4.45637 10.126 5.80346L4.06521 16.2243C3.33845 17.4776 3.41167 18.3831 3.74106 18.9196C4.07996 19.4715 4.90604 19.9904 6.44065 19.9904H12.5015C12.5486 19.9904 12.595 19.9937 12.6403 20H18.5624C20.0909 20 20.9182 19.4816 21.2587 18.9283C21.5892 18.3912 21.664 17.4863 20.9382 16.2346M20.9382 16.2346L14.8773 5.8041C14.0959 4.45701 13.1994 4 12.5015 4M12.3627 21.9904H6.44065C4.50476 21.9904 2.87049 21.3239 2.03673 19.9661C1.19349 18.5929 1.38198 16.8642 2.33517 15.2209L8.39655 4.79904C9.39536 3.07772 10.8494 2 12.5015 2C14.1539 2 15.6081 3.07808 16.607 4.79991L22.6674 15.2298C23.6215 16.8745 23.8066 18.604 22.962 19.9765C22.1273 21.3329 20.4943 22 18.5624 22H12.5015C12.4544 22 12.408 21.9967 12.3627 21.9904ZM12.5006 8C13.0529 8 13.5006 8.44772 13.5006 9V13C13.5006 13.5523 13.0529 14 12.5006 14C11.9484 14 11.5006 13.5523 11.5006 13V9C11.5006 8.44772 11.9484 8 12.5006 8Z" fill="#3C3C49"/>
<path fill-rule="evenodd" clip-rule="evenodd" d="M12.5006 15.9502C13.191 15.9502 13.7506 16.5098 13.7506 17.2002V17.3002C13.7506 17.9906 13.191 18.5502 12.5006 18.5502C11.8103 18.5502 11.2506 17.9906 11.2506 17.3002V17.2002C11.2506 16.5098 11.8103 15.9502 12.5006 15.9502Z" fill="#3C3C49"/>
</svg>
