<svg class="destop-mobile-icon" width="25" height="24" viewBox="0 0 25 24" fill="none" xmlns="http://www.w3.org/2000/svg">
<path fill-rule="evenodd" clip-rule="evenodd" d="M4.04836 4.07814C3.7353 4.3912 3.5 5.04703 3.5 6.73979V11.9502H10.5C11.0523 11.9502 11.5 12.3979 11.5 12.9502C11.5 13.5025 11.0523 13.9502 10.5 13.9502H3.55366C3.6404 14.7784 3.8245 15.1776 4.04836 15.4014C4.36141 15.7145 5.01725 15.9498 6.71 15.9498H10.5C11.0523 15.9498 11.5 16.3975 11.5 16.9498V21.4702C11.5 22.0225 11.0523 22.4702 10.5 22.4702L7.24024 22.4702C6.68796 22.4702 6.24024 22.0225 6.24023 21.4702C6.24023 20.9179 6.68794 20.4702 7.24023 20.4702L9.5 20.4702V17.9498H6.71C5.03275 17.9498 3.58359 17.7651 2.63414 16.8156C1.73588 15.9174 1.52214 14.5718 1.5017 13.009C1.50057 12.9896 1.5 12.9699 1.5 12.9502C1.5 12.9377 1.50023 12.9252 1.50069 12.9128C1.50022 12.8554 1.5 12.7977 1.5 12.7398V6.73979C1.5 5.06254 1.6847 3.61337 2.63414 2.66393C3.58359 1.71448 5.03275 1.52979 6.71 1.52979H17.24C18.9172 1.52979 20.3664 1.71448 21.3159 2.66393C22.2653 3.61337 22.45 5.06254 22.45 6.73979C22.45 7.29207 22.0023 7.73979 21.45 7.73979C20.8977 7.73979 20.45 7.29207 20.45 6.73979C20.45 5.04703 20.2147 4.3912 19.9016 4.07814C19.5886 3.76509 18.9328 3.52979 17.24 3.52979H6.71C5.01725 3.52979 4.36141 3.76509 4.04836 4.07814ZM14.3286 11.1382C14.2032 11.2637 14.0303 11.6068 14.0303 12.7998V18.5098C14.0303 19.7029 14.2032 20.046 14.3286 20.1715C14.4541 20.297 14.7973 20.4698 15.9903 20.4698H19.5403C20.7333 20.4698 21.0764 20.297 21.2019 20.1715C21.3274 20.046 21.5003 19.7029 21.5003 18.5098V12.7998C21.5003 11.6068 21.3274 11.2637 21.2019 11.1382C21.0764 11.0127 20.7333 10.8398 19.5403 10.8398H15.9903C14.7973 10.8398 14.4541 11.0127 14.3286 11.1382ZM12.9144 9.72399C13.6764 8.96196 14.8133 8.83984 15.9903 8.83984H19.5403C20.7173 8.83984 21.8541 8.96196 22.6161 9.72399C23.3782 10.486 23.5003 11.6229 23.5003 12.7998V18.5098C23.5003 19.6868 23.3782 20.8237 22.6161 21.5857C21.8541 22.3477 20.7173 22.4698 19.5403 22.4698H15.9903C14.8133 22.4698 13.6764 22.3477 12.9144 21.5857C12.1524 20.8237 12.0303 19.6868 12.0303 18.5098V12.7998C12.0303 11.6229 12.1524 10.486 12.9144 9.72399Z" fill="var(--text-main)"/>
<path fill-rule="evenodd" clip-rule="evenodd" d="M16.4945 18.25C16.4945 17.5596 17.0542 17 17.7445 17H17.7535C18.4438 17 19.0035 17.5596 19.0035 18.25C19.0035 18.9404 18.4438 19.5 17.7535 19.5H17.7445C17.0542 19.5 16.4945 18.9404 16.4945 18.25Z" fill="var(--text-main)"/>
</svg>

