<svg class="discord-icon" width="20" height="20" viewBox="0 0 20 20" fill="none" xmlns="http://www.w3.org/2000/svg">
<path d="M16.0742 4.79687C14.9414 4.30781 13.7301 3.95238 12.4638 3.75C12.3083 4.00945 12.1266 4.35841 12.0013 4.63601C10.6552 4.44921 9.32139 4.44921 8.00001 4.63601C7.87476 4.35841 7.68895 4.00945 7.53203 3.75C6.26434 3.95238 5.0517 4.30912 3.91889 4.79946C1.63401 7.98543 1.01462 11.0923 1.32431 14.155C2.83977 15.1993 4.30842 15.8336 5.75229 16.2487C6.10879 15.796 6.42674 15.3147 6.70065 14.8075C6.17899 14.6246 5.67934 14.3989 5.20724 14.1368C5.33249 14.0512 5.455 13.9617 5.57336 13.8696C8.45285 15.1124 11.5815 15.1124 14.4266 13.8696C14.5463 13.9617 14.6688 14.0512 14.7927 14.1368C14.3192 14.4002 13.8182 14.6259 13.2965 14.8088C13.5704 15.3147 13.887 15.7973 14.2449 16.25C15.6901 15.8349 17.1602 15.2006 18.6756 14.155C19.039 10.6045 18.0549 7.52621 16.0742 4.79687ZM7.09294 12.2714C6.22855 12.2714 5.51967 11.5268 5.51967 10.6201C5.51967 9.71333 6.21341 8.96743 7.09294 8.96743C7.9725 8.96743 8.68135 9.71202 8.66621 10.6201C8.66758 11.5268 7.9725 12.2714 7.09294 12.2714ZM12.907 12.2714C12.0426 12.2714 11.3337 11.5268 11.3337 10.6201C11.3337 9.71333 12.0274 8.96743 12.907 8.96743C13.7865 8.96743 14.4954 9.71202 14.4803 10.6201C14.4803 11.5268 13.7865 12.2714 12.907 12.2714Z" fill="#BCBCC8"/>
</svg>
