<svg class="empty-wallet-icon" width="24" height="24" viewBox="0 0 24 24" fill="none" xmlns="http://www.w3.org/2000/svg">
<path fill-rule="evenodd" clip-rule="evenodd" d="M6.25999 8.49988C4.60421 8.49988 3.25 9.8541 3.25 11.5099V17.9999C3.25 19.7948 4.70508 21.2499 6.5 21.2499H17.74C19.3958 21.2499 20.75 19.8957 20.75 18.2399V17.7999H19.6C18.1905 17.7999 16.8223 16.7692 16.693 15.2466C16.6122 14.3844 16.9405 13.5789 17.5093 13.0198C18.0209 12.498 18.7224 12.1999 19.48 12.1999H20.75V11.5099C20.75 9.8541 19.3958 8.49988 17.74 8.49988H6.25999ZM1.75 11.5099C1.75 9.02568 3.77578 6.99988 6.25999 6.99988H17.74C20.2242 6.99988 22.25 9.02568 22.25 11.5099V12.9499C22.25 13.3641 21.9142 13.6999 21.5 13.6999H19.48C19.1209 13.6999 18.8052 13.8391 18.5773 14.0731L18.5639 14.0866C18.2978 14.3463 18.1492 14.7161 18.1866 15.1088L18.1875 15.1176C18.2404 15.7526 18.8509 16.2999 19.6 16.2999H21.5C21.9142 16.2999 22.25 16.6357 22.25 17.0499V18.2399C22.25 20.7241 20.2242 22.7499 17.74 22.7499H6.5C3.87665 22.7499 1.75 20.6232 1.75 17.9999V11.5099Z" fill="#3C3C49"/>
<path fill-rule="evenodd" clip-rule="evenodd" d="M14.1 3.94991C14.1 3.14239 13.293 2.58801 12.5458 2.8712L4.60542 5.87135C3.78865 6.18055 3.25 6.96037 3.25 7.83993V12.4099C3.25 12.8241 2.91421 13.1599 2.5 13.1599C2.08579 13.1599 1.75 12.8241 1.75 12.4099V7.83993C1.75 6.33961 2.67153 4.9993 4.07458 4.46842L12.0142 1.46857C13.747 0.811761 15.6 2.09743 15.6 3.94991V7.7499C15.6 8.16411 15.2642 8.4999 14.85 8.4999C14.4358 8.4999 14.1 8.16411 14.1 7.7499V3.94991Z" fill="#3C3C49"/>
<path fill-rule="evenodd" clip-rule="evenodd" d="M19.4788 13.7001C19.1197 13.7001 18.804 13.8393 18.5762 14.0733L18.5627 14.0867C18.2967 14.3465 18.148 14.7162 18.1854 15.109L18.1863 15.1178C18.2392 15.7528 18.8497 16.3001 19.5988 16.3001H21.5416C21.7032 16.2896 21.8088 16.1632 21.8088 16.0301V13.97C21.8088 13.8369 21.7032 13.7105 21.5416 13.7001H19.4788ZM17.5081 13.02C18.0197 12.4982 18.7212 12.2001 19.4788 12.2001H21.5588C21.5677 12.2001 21.5767 12.2002 21.5856 12.2006C22.5386 12.2346 23.3088 13.0058 23.3088 13.97V16.0301C23.3088 16.9944 22.5386 17.7655 21.5856 17.7996C21.5767 17.7999 21.5677 17.8001 21.5588 17.8001H19.5988C18.1893 17.8001 16.8211 16.7694 16.6918 15.2468C16.611 14.3846 16.9393 13.5791 17.5081 13.02Z" fill="#3C3C49"/>
<path fill-rule="evenodd" clip-rule="evenodd" d="M6.25 11.9999C6.25 11.5857 6.58579 11.2499 7 11.2499H14C14.4142 11.2499 14.75 11.5857 14.75 11.9999C14.75 12.4141 14.4142 12.7499 14 12.7499H7C6.58579 12.7499 6.25 12.4141 6.25 11.9999Z" fill="#3C3C49"/>
</svg>
