<svg class="explore-icon" width="24" height="24" viewBox="0 0 24 24" fill="none" xmlns="http://www.w3.org/2000/svg">
<path fill-rule="evenodd" clip-rule="evenodd" d="M20.5281 1.99382L20.5291 1.99531L22.3445 4.69853L22.346 4.70077C23.0361 5.72029 22.763 7.1238 21.7328 7.81141L21.7317 7.81208L16.0734 11.6009C15.6148 11.908 14.9941 11.7855 14.6866 11.3271L11.4866 6.55713C11.3388 6.33676 11.2846 6.06667 11.336 5.80633C11.3874 5.54599 11.5402 5.31675 11.7607 5.1691L17.4185 1.38056C18.4378 0.691223 19.8405 0.964224 20.5281 1.99382ZM18.865 3.10471C18.7929 2.99652 18.6385 2.96966 18.5385 3.03749L18.5334 3.04095L13.7051 6.27407L15.7909 9.38318L20.6207 6.14911L20.6223 6.14798C20.7305 6.07585 20.7574 5.9215 20.6896 5.82153L20.6869 5.81756L18.865 3.10471Z" fill="#3C3C49"/>
<path fill-rule="evenodd" clip-rule="evenodd" d="M7.05235 10.2356C6.745 9.77674 6.86785 9.15558 7.32675 8.84823L12.1044 5.64836C12.5633 5.34101 13.1845 5.46387 13.4918 5.92276L16.0517 9.7449C16.3591 10.2038 16.2362 10.825 15.7773 11.1323L10.9997 14.3322C10.5408 14.6395 9.9196 14.5167 9.61225 14.0578L7.05235 10.2356ZM9.27065 9.95353L10.7176 12.1139L13.8334 10.027L12.3865 7.86666L9.27065 9.95353Z" fill="#3C3C49"/>
<path fill-rule="evenodd" clip-rule="evenodd" d="M3.49529 15.2931C2.59587 13.9502 2.95539 12.1324 4.2983 11.233L6.91624 9.4796C7.37513 9.17225 7.99629 9.2951 8.30364 9.754L10.4477 12.9553C10.7551 13.4142 10.6322 14.0354 10.1733 14.3427L7.55539 16.0961C6.21248 16.9955 4.39471 16.636 3.49529 15.2931ZM5.4113 12.8948C4.98617 13.1795 4.87236 13.755 5.15709 14.1801C5.44182 14.6052 6.01727 14.719 6.44239 14.4343L8.22943 13.2374L7.19834 11.6979L5.4113 12.8948Z" fill="#3C3C49"/>
<path fill-rule="evenodd" clip-rule="evenodd" d="M12.9536 11.2909C13.4557 11.521 13.6762 12.1145 13.4462 12.6166L8.95617 22.4166C8.72612 22.9186 8.13261 23.1392 7.63052 22.9091C7.12842 22.6791 6.90788 22.0856 7.13792 21.5835L11.6279 11.7835C11.858 11.2814 12.4515 11.0609 12.9536 11.2909Z" fill="#3C3C49"/>
<path fill-rule="evenodd" clip-rule="evenodd" d="M12.0744 11.2892C12.5774 11.0612 13.17 11.2843 13.3979 11.7874L17.8379 21.5873C18.0658 22.0904 17.8428 22.683 17.3397 22.9109C16.8367 23.1388 16.2441 22.9158 16.0162 22.4127L11.5762 12.6127C11.3483 12.1097 11.5713 11.5171 12.0744 11.2892Z" fill="#3C3C49"/>
</svg>
