<svg class="home-icon" width="24" height="24" viewBox="0 0 24 24" fill="none" xmlns="http://www.w3.org/2000/svg">
<path fill-rule="evenodd" clip-rule="evenodd" d="M11.9778 1.01869C13.0563 0.993403 14.1881 1.26666 15.0935 1.90044L21.2718 6.22927C21.2721 6.22951 21.2725 6.22974 21.2728 6.22998C21.9339 6.69104 22.4793 7.39185 22.8577 8.11692C23.2365 8.84243 23.5 9.69172 23.5 10.4997V17.7797C23.5 20.6404 21.1638 22.9897 18.29 22.9897H6.71C3.83463 22.9897 1.5 20.6389 1.5 17.7697V10.3597C1.5 9.6007 1.73837 8.79368 2.07974 8.09793C2.42127 7.40185 2.91433 6.71838 3.51589 6.25045C3.51594 6.2504 3.51583 6.25049 3.51589 6.25045L8.90535 2.05087C9.77999 1.37059 10.8993 1.04398 11.9778 1.01869ZM10.1339 3.62902C10.1338 3.62911 10.1341 3.62893 10.1339 3.62902L4.74465 7.82847C4.44628 8.06053 4.1237 8.47255 3.87526 8.9789C3.62663 9.48565 3.5 9.98863 3.5 10.3597V17.7697C3.5 19.5405 4.94537 20.9897 6.71 20.9897H18.29C20.0562 20.9897 21.5 19.5389 21.5 17.7797V10.4997C21.5 10.0976 21.3585 9.5669 21.0848 9.04241C20.8109 8.51786 20.4567 8.09902 20.1282 7.87007L20.1262 7.86865L13.9465 3.5389C13.452 3.19283 12.7585 3.00094 12.0247 3.01814C11.2909 3.03535 10.6093 3.25946 10.1339 3.62902ZM12.5 13.9897C13.0523 13.9897 13.5 14.4375 13.5 14.9897V17.9897C13.5 18.542 13.0523 18.9897 12.5 18.9897C11.9477 18.9897 11.5 18.542 11.5 17.9897V14.9897C11.5 14.4375 11.9477 13.9897 12.5 13.9897Z" fill="#3C3C49"/>
</svg>
