<svg class="info-icon" width="24" height="24" viewBox="0 0 24 24" fill="none" xmlns="http://www.w3.org/2000/svg">
<path fill-rule="evenodd" clip-rule="evenodd" d="M1.5 12C1.5 5.94772 6.44772 1 12.5 1C18.5523 1 23.5 5.94772 23.5 12C23.5 18.0523 18.5523 23 12.5 23C6.44772 23 1.5 18.0523 1.5 12ZM12.5 3C7.55228 3 3.5 7.05228 3.5 12C3.5 16.9477 7.55228 21 12.5 21C17.4477 21 21.5 16.9477 21.5 12C21.5 7.05228 17.4477 3 12.5 3ZM12.5 11C13.0523 11 13.5 11.4477 13.5 12V16C13.5 16.5523 13.0523 17 12.5 17C11.9477 17 11.5 16.5523 11.5 16V12C11.5 11.4477 11.9477 11 12.5 11Z" fill="#3C3C49"/>
<path d="M13.75 8.25C13.75 8.94036 13.1904 9.5 12.5 9.5C11.8096 9.5 11.25 8.94036 11.25 8.25C11.25 7.55964 11.8096 7 12.5 7C13.1904 7 13.75 7.55964 13.75 8.25Z" fill="#3C3C49"/>
</svg>
