<svg class="key-icon" width="24" height="24" viewBox="0 0 24 24" fill="none" xmlns="http://www.w3.org/2000/svg">
<path fill-rule="evenodd" clip-rule="evenodd" d="M18.754 7.12085L20.1682 5.70663L18.754 4.29242L11.2587 11.7878C9.31731 10.5016 6.6759 10.7137 4.96544 12.4241C3.01282 14.3768 3.01282 17.5426 4.96544 19.4952C6.91806 21.4478 10.0839 21.4478 12.0365 19.4952C13.747 17.7848 13.9591 15.1433 12.6729 13.202L14.8649 11.0099L17.3398 13.4848L18.754 12.0706L16.2792 9.59572L17.3398 8.53506L19.8147 11.0099L21.2289 9.59572L18.754 7.12085ZM10.6223 13.8384C9.45072 12.6668 7.55123 12.6668 6.37966 13.8384C5.20808 15.0099 5.20808 16.9094 6.37966 18.081C7.55123 19.2526 9.45072 19.2526 10.6223 18.081C11.7939 16.9094 11.7939 15.0099 10.6223 13.8384Z" fill="#3C3C49"/>
</svg>
