<svg width="153" height="44" viewBox="0 0 153 44" fill="none" xmlns="http://www.w3.org/2000/svg">
<path fill-rule="evenodd" clip-rule="evenodd" d="M6.5911 8.42606C5.95233 9.06484 5.4987 10.3741 5.4987 13.6403V27.5003H38.4987V13.6403C38.4987 10.3739 38.0449 9.06581 37.4052 8.42728C36.7642 7.7875 35.45 7.33366 32.1737 7.33366H11.8054C8.53915 7.33366 7.22988 7.78729 6.5911 8.42606ZM42.1639 25.5934C42.1649 25.478 42.1654 25.362 42.1654 25.2453V13.6403C42.1654 10.3984 41.8033 7.63651 39.9955 5.83212C38.189 4.02898 35.4241 3.66699 32.1737 3.66699H11.8054C8.56325 3.66699 5.80252 4.02919 3.99838 5.83334C2.19423 7.63748 1.83203 10.3982 1.83203 13.6403V25.2637C1.83203 25.3752 1.83246 25.4861 1.83336 25.5965C1.83248 25.6199 1.83203 25.6434 1.83203 25.667C1.83203 25.7039 1.83312 25.7405 1.83527 25.7768C1.87462 28.7961 2.28996 31.3631 3.9996 33.0696C5.80537 34.872 8.56725 35.2276 11.808 35.2187H32.192C35.4306 35.2187 38.1927 34.8621 39.9978 33.0604C41.7036 31.3578 42.1208 28.7985 42.1618 25.7816C42.1642 25.7437 42.1654 25.7055 42.1654 25.667C42.1654 25.6424 42.1649 25.6178 42.1639 25.5934ZM38.4987 27.5003H5.4987C5.66293 29.1858 6.12412 30.0095 6.58988 30.4744C7.22656 31.1099 8.53372 31.5612 11.8002 31.552L11.8054 31.552L32.192 31.552C35.4618 31.552 36.7696 31.1019 37.4075 30.4652C37.8719 30.0017 38.3338 29.1812 38.4987 27.5003ZM11.9154 40.3337C11.9154 39.3211 12.7362 38.5003 13.7487 38.5003H30.2487C31.2612 38.5003 32.082 39.3211 32.082 40.3337C32.082 41.3462 31.2612 42.167 30.2487 42.167H13.7487C12.7362 42.167 11.9154 41.3462 11.9154 40.3337Z" fill="var(--text-main)"/>
<path d="M128.747 1.83301C124.697 1.83301 121.414 5.11625 121.414 9.16634V22.1849C122.467 21.1108 123.706 20.2208 125.081 19.568V9.16634C125.081 7.1413 126.722 5.49967 128.747 5.49967H132.414C134.439 5.49967 136.081 7.1413 136.081 9.16634V19.568C137.455 20.2208 138.695 21.1108 139.747 22.1849V9.16634C139.747 5.11625 136.464 1.83301 132.414 1.83301H128.747Z" fill="var(--text-main)"/>
<path fill-rule="evenodd" clip-rule="evenodd" d="M121.414 31.1663C121.414 26.1037 125.518 21.9997 130.581 21.9997C135.643 21.9997 139.747 26.1037 139.747 31.1663V38.6663C139.747 40.5993 138.18 42.1663 136.247 42.1663H124.914C122.981 42.1663 121.414 40.5993 121.414 38.6663V31.1663ZM130.581 25.6663C127.543 25.6663 125.081 28.1288 125.081 31.1663V38.4997H136.081V31.1663C136.081 28.1288 133.618 25.6663 130.581 25.6663Z" fill="var(--text-main)"/>
<path d="M132.872 31.6247C132.872 32.8903 131.846 33.9163 130.581 33.9163C129.315 33.9163 128.289 32.8903 128.289 31.6247C128.289 30.359 129.315 29.333 130.581 29.333C131.846 29.333 132.872 30.359 132.872 31.6247Z" fill="var(--text-main)"/>
<circle opacity="0.3" cx="63" cy="22" r="2" transform="rotate(-90 63 22)" fill="var(--text-main)"/>
<circle opacity="0.5" cx="75" cy="22" r="2" transform="rotate(-90 75 22)" fill="var(--text-main)"/>
<circle opacity="0.7" cx="87" cy="22" r="2" transform="rotate(-90 87 22)" fill="var(--text-main)"/>
<circle cx="99" cy="22" r="2" transform="rotate(-90 99 22)" fill="var(--text-main)"/>
</svg>
