<svg class="lock-delete-icon" width="56" height="56" viewBox="0 0 56 56" fill="none" xmlns="http://www.w3.org/2000/svg">
<path d="M20.4152 16.5882C21.1949 17.3671 21.1949 18.6369 20.4152 19.4158C19.6355 20.1947 18.3645 20.1947 17.5848 19.4158C16.8051 18.6369 16.8051 17.3671 17.5848 16.5882C18.3645 15.8039 19.6302 15.8039 20.4152 16.5882Z" fill="#E54343"/>
<path d="M29.4152 16.5882C30.1949 17.3671 30.1949 18.6369 29.4152 19.4158C28.6355 20.1947 27.3645 20.1947 26.5848 19.4158C25.8051 18.6369 25.8051 17.3671 26.5848 16.5882C27.3645 15.8039 28.6355 15.8039 29.4152 16.5882Z" fill="#E54343"/>
<path d="M38.4152 16.5882C39.1949 17.3671 39.1949 18.6369 38.4152 19.4158C37.6355 20.1947 36.3645 20.1947 35.5848 19.4158C34.8051 18.6369 34.8051 17.3671 35.5848 16.5882C36.3645 15.8039 37.6302 15.8039 38.4152 16.5882Z" fill="#E54343"/>
<path d="M25.6667 30.3333H11.6667C9.08833 30.3333 7 28.245 7 25.6667V11.6667C7 9.08833 9.08833 7 11.6667 7H44.3333C46.9117 7 49 9.08833 49 11.6667V18.6667" stroke="#E54343" stroke-width="3" stroke-linecap="round" stroke-linejoin="round"/>
<path d="M47 31H52V33H50V46C50 46.2652 49.8946 46.5196 49.7071 46.7071C49.5196 46.8946 49.2652 47 49 47H35C34.7348 47 34.4804 46.8946 34.2929 46.7071C34.1054 46.5196 34 46.2652 34 46V33H32V31H37V28C37 27.7348 37.1054 27.4804 37.2929 27.2929C37.4804 27.1054 37.7348 27 38 27H46C46.2652 27 46.5196 27.1054 46.7071 27.2929C46.8946 27.4804 47 27.7348 47 28V31ZM48 33H36V45H48V33ZM39 36H41V42H39V36ZM43 36H45V42H43V36ZM39 29V31H45V29H39Z" fill="#E54343"/>
<rect x="35" y="32" width="14" height="14" rx="1" stroke="#E54343" stroke-width="3"/>
<rect x="38" y="27" width="8" height="5" rx="1" stroke="#E54343" stroke-width="3"/>
<path d="M32 31L52 31" stroke="#E54343" stroke-width="2"/>
<path d="M40 42L40 36" stroke="#E54343" stroke-width="3"/>
<path d="M44 42L44 36" stroke="#E54343" stroke-width="3"/>
</svg>
