<svg width="56" height="56" viewBox="0 0 56 56" fill="none" xmlns="http://www.w3.org/2000/svg">
<path d="M20.4152 16.5882C21.1949 17.3671 21.1949 18.6369 20.4152 19.4158C19.6355 20.1947 18.3645 20.1947 17.5848 19.4158C16.8051 18.6369 16.8051 17.3671 17.5848 16.5882C18.3645 15.8039 19.6302 15.8039 20.4152 16.5882Z" fill="#6B46FE"/>
<path d="M29.4152 16.5882C30.1949 17.3671 30.1949 18.6369 29.4152 19.4158C28.6355 20.1947 27.3645 20.1947 26.5848 19.4158C25.8051 18.6369 25.8051 17.3671 26.5848 16.5882C27.3645 15.8039 28.6355 15.8039 29.4152 16.5882Z" fill="#6B46FE"/>
<path d="M38.4152 16.5882C39.1949 17.3671 39.1949 18.6369 38.4152 19.4158C37.6355 20.1947 36.3645 20.1947 35.5848 19.4158C34.8051 18.6369 34.8051 17.3671 35.5848 16.5882C36.3645 15.8039 37.6302 15.8039 38.4152 16.5882Z" fill="#6B46FE"/>
<path d="M25.6667 30.3333H11.6667C9.08833 30.3333 7 28.245 7 25.6667V11.6667C7 9.08833 9.08833 7 11.6667 7H44.3333C46.9117 7 49 9.08833 49 11.6667V18.6667" stroke="#6B46FE" stroke-width="3" stroke-linecap="round" stroke-linejoin="round"/>
<path d="M45.2503 36.6239V32.5779C45.2503 30.0486 43.1993 27.9976 40.67 27.9976C38.1407 27.9976 36.0897 30.0486 36.0897 32.5779V36.6239" stroke="#6B46FE" stroke-width="3" stroke-linecap="round" stroke-linejoin="round"/>
<path d="M46.6667 36.6289H35C33.712 36.6289 32.6667 37.6742 32.6667 38.9622V46.6669C32.6667 47.9549 33.712 49.0002 35 49.0002H46.6667C47.9547 49.0002 49 47.9549 49 46.6669V38.9622C49 37.6719 47.9547 36.6289 46.6667 36.6289Z" stroke="#6B46FE" stroke-width="3" stroke-linecap="round" stroke-linejoin="round"/>
</svg>
