<svg width="56" height="56" viewBox="0 0 56 56" fill="none" xmlns="http://www.w3.org/2000/svg">
<path d="M20.4152 16.5882C21.1949 17.3671 21.1949 18.6369 20.4152 19.4158C19.6355 20.1947 18.3645 20.1947 17.5848 19.4158C16.8051 18.6369 16.8051 17.3671 17.5848 16.5882C18.3645 15.8039 19.6302 15.8039 20.4152 16.5882Z" fill="#FF515B"/>
<path d="M29.4152 16.5882C30.1949 17.3671 30.1949 18.6369 29.4152 19.4158C28.6355 20.1947 27.3645 20.1947 26.5848 19.4158C25.8051 18.6369 25.8051 17.3671 26.5848 16.5882C27.3645 15.8039 28.6355 15.8039 29.4152 16.5882Z" fill="#FF515B"/>
<path d="M38.4152 16.5882C39.1949 17.3671 39.1949 18.6369 38.4152 19.4158C37.6355 20.1947 36.3645 20.1947 35.5848 19.4158C34.8051 18.6369 34.8051 17.3671 35.5848 16.5882C36.3645 15.8039 37.6302 15.8039 38.4152 16.5882Z" fill="#FF515B"/>
<path d="M25.6667 30.3333H11.6667C9.08833 30.3333 7 28.245 7 25.6667V11.6667C7 9.08833 9.08833 7 11.6667 7H44.3333C46.9117 7 49 9.08833 49 11.6667V18.6667" stroke="#FF515B" stroke-width="3" stroke-linecap="round" stroke-linejoin="round"/>
<path d="M42 47C36.478 47 32 42.522 32 37C32 31.478 36.478 27 42 27C47.524 27 52 31.478 52 37C52 42.522 47.524 47 42 47Z" stroke="#FF515B" stroke-width="3" stroke-linecap="round" stroke-linejoin="round"/>
<path d="M44.7273 34.2729L39.2727 39.7275" stroke="#FF515B" stroke-width="3" stroke-linecap="round" stroke-linejoin="round"/>
<path d="M44.7273 39.7275L39.2727 34.2729" stroke="#FF515B" stroke-width="3" stroke-linecap="round" stroke-linejoin="round"/>
</svg>
