<svg class="lock-icon" width="25" height="24" viewBox="0 0 25 24" fill="none" xmlns="http://www.w3.org/2000/svg">
<path fill-rule="evenodd" clip-rule="evenodd" d="M7.5 6.24777C7.5 3.40727 9.68308 1 12.5 1C15.3169 1 17.5 3.40727 17.5 6.24777V9H18.2143C20.0183 9 21.5 10.4495 21.5 12.2633V19.7367C21.5 21.5476 20.019 23 18.2143 23H6.78571C4.98103 23 3.5 21.5476 3.5 19.7367V12.2633C3.5 10.4524 4.98103 9 6.78571 9H7.5V6.24777ZM6.78571 11C6.06697 11 5.5 11.5755 5.5 12.2633V19.7367C5.5 20.4245 6.06697 21 6.78571 21H18.2143C18.933 21 19.5 20.4245 19.5 19.7367V12.2633C19.5 11.5739 18.9337 11 18.2143 11H6.78571ZM15.5 9H9.5V6.24777C9.5 4.3969 10.8992 3 12.5 3C14.1008 3 15.5 4.3969 15.5 6.24777V9Z" fill="#3C3C49"/>
</svg>
