<svg class="opt-in-icon" width="24" height="24" viewBox="0 0 24 24" fill="none" xmlns="http://www.w3.org/2000/svg">
<path fill-rule="evenodd" clip-rule="evenodd" d="M4.10138 5.2978C3.59145 5.7713 3.21094 6.57058 3.21094 7.91998V13.07C3.21094 14.047 3.41115 14.7321 3.70445 15.2074C3.99027 15.6705 4.40485 16.0011 4.96676 16.2117C5.14095 16.2748 5.31354 16.3238 5.48048 16.3512C5.50421 16.3548 5.52792 16.3592 5.55154 16.3645C5.69222 16.3962 5.84113 16.4207 5.99801 16.4381C6.19046 16.4594 6.39491 16.47 6.61093 16.47H15.4009C16.5677 16.47 17.3871 16.1782 17.9105 15.6922C18.4204 15.2187 18.8009 14.4194 18.8009 13.07V7.91998C18.8009 7.52869 18.7602 7.18214 18.6979 6.8237C18.526 5.96777 18.1458 5.43076 17.6512 5.08896C17.1328 4.73071 16.3897 4.52002 15.4009 4.52002H6.61093C5.44422 4.52002 4.62473 4.81184 4.10138 5.2978ZM20.5039 5.82567C20.1841 4.81255 19.6039 4.00727 18.7882 3.44357C17.8341 2.78433 16.6522 2.52002 15.4009 2.52002H6.61093C5.13764 2.52002 3.75713 2.88819 2.74049 3.8322C1.71042 4.78868 1.21094 6.18938 1.21094 7.91998V13.07C1.21094 14.313 1.46573 15.3879 2.00243 16.2577C2.54594 17.1384 3.3351 17.7374 4.27119 18.0869L4.2792 18.0898C4.35399 18.117 4.43219 18.1438 4.51344 18.1694C4.96887 19.6046 5.93007 20.5895 7.27129 21.0866C7.99276 21.3596 8.78809 21.4701 9.61203 21.4701H18.402C19.8753 21.4701 21.2558 21.1019 22.2725 20.1579C23.3025 19.2014 23.802 17.8007 23.802 16.0701V10.9201C23.802 9.49222 23.4579 8.28822 22.746 7.36641C22.1625 6.61088 21.3847 6.11315 20.5039 5.82567ZM6.89341 18.4701C7.17536 18.8149 7.5379 19.0529 7.96884 19.2122L7.97671 19.2151C8.4142 19.3811 8.95746 19.4701 9.61203 19.4701H18.402C19.5688 19.4701 20.3882 19.1783 20.9116 18.6923C21.4215 18.2188 21.802 17.4195 21.802 16.0701V10.9201C21.802 9.80799 21.5362 9.072 21.1631 8.58883C21.0578 8.45254 20.9377 8.32819 20.802 8.21631V13.0701C20.802 14.8007 20.3025 16.2014 19.2725 17.1579C18.2558 18.1019 16.8753 18.4701 15.402 18.4701H6.89341ZM14.2071 7.79289C14.5976 8.18342 14.5976 8.81658 14.2071 9.20711L10.2071 13.2071C9.81658 13.5976 9.18342 13.5976 8.79289 13.2071L7.29289 11.7071C6.90237 11.3166 6.90237 10.6834 7.29289 10.2929C7.68342 9.90237 8.31658 9.90237 8.70711 10.2929L9.5 11.0858L12.7929 7.79289C13.1834 7.40237 13.8166 7.40237 14.2071 7.79289Z" fill="#3C3C49"/>
</svg>
