<svg class="password-visible-icon" width="24" height="24" viewBox="0 0 24 24" fill="none" xmlns="http://www.w3.org/2000/svg">
<path fill-rule="evenodd" clip-rule="evenodd" d="M2.5465 8.86283C4.97106 5.05168 8.54587 2.72021 12.4998 2.72021C16.454 2.72021 20.029 5.05195 22.4536 8.86349C23.0302 9.7676 23.2848 10.9117 23.2848 11.9952C23.2848 13.0789 23.0301 14.2234 22.4532 15.1276C20.0286 18.9388 16.4538 21.2702 12.4998 21.2702C8.54565 21.2702 4.97065 18.9385 2.54609 15.1269C1.96946 14.2228 1.71484 13.0787 1.71484 11.9952C1.71484 10.9115 1.96958 9.76704 2.5465 8.86283ZM12.4998 4.72021C9.39404 4.72021 6.38904 6.54848 4.2336 9.93694L4.23277 9.93825C3.90999 10.4439 3.71484 11.1892 3.71484 11.9952C3.71484 12.8012 3.90999 13.5465 4.23277 14.0522L4.2336 14.0535C6.38904 17.4419 9.39404 19.2702 12.4998 19.2702C15.6056 19.2702 18.6107 17.4419 20.7661 14.0535L20.7669 14.0522C21.0897 13.5465 21.2848 12.8012 21.2848 11.9952C21.2848 11.1892 21.0897 10.4439 20.7669 9.93825L20.7661 9.93694C18.6107 6.54848 15.6056 4.72021 12.4998 4.72021ZM12.4999 9.41992C11.0722 9.41992 9.91992 10.5722 9.91992 11.9999C9.91992 13.4276 11.0722 14.5799 12.4999 14.5799C13.9276 14.5799 15.0799 13.4276 15.0799 11.9999C15.0799 10.5722 13.9276 9.41992 12.4999 9.41992ZM7.91992 11.9999C7.91992 9.46764 9.96764 7.41992 12.4999 7.41992C15.0322 7.41992 17.0799 9.46764 17.0799 11.9999C17.0799 14.5322 15.0322 16.5799 12.4999 16.5799C9.96764 16.5799 7.91992 14.5322 7.91992 11.9999Z" fill="#3C3C49"/>
</svg>
