<svg class="password-hidden-icon" width="24" height="24" viewBox="0 0 24 24" fill="none" xmlns="http://www.w3.org/2000/svg">
<path fill-rule="evenodd" clip-rule="evenodd" d="M23.2074 1.29291C23.5979 1.68345 23.5979 2.31661 23.2074 2.70713L15.737 10.177L15.737 10.177L10.677 15.237L9.96992 14.5299L10.677 15.237L3.2071 22.7069C2.81658 23.0974 2.18341 23.0974 1.79289 22.7069C1.40237 22.3164 1.40237 21.6832 1.7929 21.2927L4.97951 18.1061C4.08281 17.2598 3.26196 16.2604 2.54646 15.1373C1.96957 14.2331 1.71484 13.0887 1.71484 12.005C1.71484 10.9212 1.96958 9.77681 2.5465 8.8726C4.97106 5.06145 8.54587 2.72998 12.4998 2.72998C14.6217 2.72998 16.6577 3.40933 18.4518 4.63402L21.7932 1.29287C22.1837 0.90236 22.8169 0.902378 23.2074 1.29291ZM17.0075 6.07827C15.5989 5.19337 14.0633 4.72998 12.4998 4.72998C9.39404 4.72998 6.38904 6.55825 4.2336 9.9467L4.23277 9.94802C3.90999 10.4537 3.71484 11.199 3.71484 12.005C3.71484 12.811 3.90999 13.5563 4.23277 14.0619L4.23323 14.0627C4.87795 15.0746 5.60986 15.9579 6.39442 16.6912L8.63296 14.4527C8.1817 13.7444 7.91992 12.9042 7.91992 11.9999C7.91992 9.46764 9.96764 7.41992 12.4999 7.41992C13.4043 7.41992 14.2444 7.68171 14.9527 8.13298L17.0075 6.07827ZM13.4751 9.61057C13.1746 9.48733 12.846 9.41992 12.4999 9.41992C11.0722 9.41992 9.91992 10.5722 9.91992 11.9999C9.91992 12.346 9.98733 12.6746 10.1106 12.9751L13.4751 9.61057ZM19.9232 7.15096C20.3535 6.80481 20.983 6.87307 21.3291 7.30342C21.7177 7.78644 22.1005 8.30691 22.4543 8.86435C23.0305 9.76832 23.2849 10.9121 23.2849 11.9952C23.2849 13.0789 23.0302 14.2233 22.4533 15.1276C20.0287 18.9387 16.4539 21.2702 12.4999 21.2702C11.1279 21.2702 9.78636 20.98 8.53186 20.4518C8.02286 20.2375 7.78397 19.6511 7.99829 19.1421C8.2126 18.6331 8.79897 18.3942 9.30798 18.6085C10.3335 19.0403 11.412 19.2702 12.4999 19.2702C15.6057 19.2702 18.6107 17.4419 20.7662 14.0535L20.767 14.0521C21.0898 13.5465 21.2849 12.8012 21.2849 11.9952C21.2849 11.1892 21.0898 10.4439 20.767 9.93821L20.7656 9.936C20.4594 9.45344 20.1222 8.99391 19.7707 8.55693C19.4246 8.12659 19.4928 7.49711 19.9232 7.15096ZM16.1918 11.7168C16.7349 11.8169 17.094 12.3384 16.9939 12.8815C16.6587 14.6993 15.1896 16.1684 13.3718 16.5036C12.8286 16.6038 12.3072 16.2447 12.207 15.7015C12.1069 15.1584 12.466 14.6369 13.0091 14.5368C14.0113 14.352 14.8422 13.5211 15.027 12.5189C15.1272 11.9757 15.6486 11.6166 16.1918 11.7168Z" fill="#3C3C49"/>
</svg>
