<svg class="pen-icon" width="24" height="24" viewBox="0 0 24 24" fill="none" xmlns="http://www.w3.org/2000/svg">
<path fill-rule="evenodd" clip-rule="evenodd" d="M15.986 1.18954C17.2517 1.02769 18.503 1.55218 19.7356 2.71191L19.7374 2.71365C20.9737 3.88277 21.5733 5.10543 21.4842 6.38119C21.3986 7.60445 20.6917 8.61947 19.9265 9.42768L18.6693 10.7585C18.6078 10.8495 18.532 10.9295 18.4453 10.9955L11.7224 18.1115C11.4658 18.3904 11.129 18.619 10.8193 18.7846C10.5047 18.9528 10.1334 19.1011 9.77537 19.1648L9.76871 19.166L6.55025 19.7157C6.55014 19.7157 6.55035 19.7157 6.55025 19.7157C5.70294 19.8617 4.87142 19.6516 4.27347 19.0846C3.67645 18.5184 3.4219 17.7007 3.51646 16.8498L3.51679 16.8467L3.8868 13.6067L3.88911 13.588C3.93666 13.2315 4.06677 12.8561 4.2153 12.5376C4.36314 12.2205 4.56918 11.8741 4.82149 11.6055L4.82344 11.6035L11.6347 4.39402C11.6532 4.37263 11.6727 4.35202 11.693 4.33224L13.0341 2.91273C13.7995 2.10423 14.7727 1.34468 15.986 1.18954ZM11.9279 6.99588L6.27919 12.9749C6.27894 12.9751 6.27869 12.9754 6.27845 12.9757C6.22065 13.0375 6.12213 13.1808 6.02788 13.3829C5.93618 13.5795 5.88646 13.7505 5.87254 13.8455L5.50422 17.0706C5.50417 17.0711 5.50413 17.0715 5.50408 17.0719C5.46905 17.3901 5.56934 17.5571 5.64971 17.6334C5.72918 17.7087 5.89785 17.7986 6.21043 17.7447L9.42775 17.1952C9.52022 17.1783 9.68764 17.1217 9.87634 17.0208C10.069 16.9179 10.1988 16.8141 10.2514 16.7565L10.2634 16.7435L15.9122 10.7644C14.1368 10.0901 12.6982 8.73212 11.9279 6.99588ZM17.4539 9.13263C15.5077 8.74864 13.9558 7.28049 13.4723 5.36119L14.4865 4.28768C14.4864 4.28788 14.4867 4.28749 14.4865 4.28768C14.4866 4.28764 14.4872 4.287 14.4872 4.28695C15.1416 3.59593 15.7132 3.24071 16.2397 3.17338C16.7139 3.11275 17.3972 3.25815 18.3642 4.16766C19.3371 5.08809 19.5223 5.76514 19.489 6.24173C19.452 6.77096 19.129 7.36094 18.4741 8.05273L17.4539 9.13263ZM2.5 22C2.5 21.4477 2.94772 21 3.5 21H21.5C22.0523 21 22.5 21.4477 22.5 22C22.5 22.5523 22.0523 23 21.5 23H3.5C2.94772 23 2.5 22.5523 2.5 22Z" fill="#3C3C49"/>
</svg>
