<svg width="196" height="80" viewBox="0 0 196 80" fill="none" xmlns="http://www.w3.org/2000/svg">
<circle opacity="0.2" cx="174" cy="36" r="2" fill="var(--purple-400)" stroke="var(--purple-400)" stroke-width="2"/>
<circle opacity="0.4" cx="76" cy="36" r="2" fill="var(--purple-400)" stroke="var(--purple-400)" stroke-width="2"/>
<circle opacity="0.4" cx="140" cy="36" r="2" fill="var(--purple-400)" stroke="var(--purple-400)" stroke-width="2"/>
<circle opacity="0.2" cx="34" cy="36" r="2" fill="var(--purple-400)" stroke="var(--purple-400)" stroke-width="2"/>
<path fill-rule="evenodd" clip-rule="evenodd" d="M110.833 27.9149C111.386 27.3617 112.283 27.3617 112.836 27.9149L119.92 34.9983C120.185 35.2639 120.335 35.6243 120.335 36C120.335 36.3757 120.185 36.7361 119.92 37.0017L112.836 44.0851C112.283 44.6383 111.386 44.6383 110.833 44.0851C110.28 43.5318 110.28 42.6348 110.833 42.0816L115.498 37.4167L99.0846 37.4167C98.3022 37.4167 97.668 36.7824 97.668 36C97.668 35.2176 98.3022 34.5833 99.0846 34.5833L115.498 34.5833L110.833 29.9184C110.28 29.3652 110.28 28.4682 110.833 27.9149Z" fill="var(--purple-400)"/>
</svg>
