<svg width="80" height="30" viewBox="0 0 80 30" fill="none" xmlns="http://www.w3.org/2000/svg">
<g clip-path="url(#clip0_14011_119165)">
<path d="M42.1086 10.8179V10.3043H40V24H42.1086V20.3098C42.1086 19.9103 42.1086 19.587 42.0702 19.1495H42.1086C42.8753 20.4049 44.1788 21.0707 45.7123 21.0707C48.3001 21.0707 50.562 19.1114 50.562 15.4783C50.562 11.9212 48.3001 10 45.7123 10C44.2363 10 42.9328 10.6467 42.1086 11.9212H42.0702C42.1086 11.5027 42.1086 11.1984 42.1086 10.8179ZM45.1756 19.2636C43.2204 19.2446 42.0894 17.5897 42.0894 15.4592C42.0894 13.4429 43.2204 11.8261 45.1756 11.8071C47.0924 11.788 48.3576 13.2717 48.3576 15.4783C48.3576 17.7418 47.0924 19.2826 45.1756 19.2636Z" fill="white"/>
<path d="M61.6344 14.5842C61.6344 11.9592 59.5258 10 56.6505 10C53.5835 10 51.4557 12.0734 51.4557 15.5353C51.4557 18.8641 53.5451 21.0707 56.6505 21.0707C59.1999 21.0707 61.0976 19.587 61.5385 17.5516H59.2383C58.8741 18.5788 57.8773 19.2636 56.6505 19.2636C55.0786 19.2636 53.9285 18.1413 53.6793 16.2772H61.6344V14.5842ZM56.6505 11.8071C58.2032 11.8071 59.2766 12.8723 59.5066 14.413H53.6985C53.9669 12.9293 55.0595 11.8071 56.6505 11.8071Z" fill="white"/>
<path d="M63.1845 20.7663H65.2931V14.8696C65.2931 12.8533 66.4048 11.8071 68.13 11.8071H69.261V10H68.3601C66.8074 10 65.8489 11.0272 65.2931 11.9212H65.2547V10.3043H63.1845V20.7663Z" fill="white"/>
<path d="M79.1182 18.9402C78.8307 18.9402 78.6965 18.769 78.6965 18.4266V13.8234C78.6965 11.6168 77.6231 10 74.4602 10C71.3932 10 69.9939 11.5217 69.8405 13.6902H71.9491C72.0833 12.5109 73.0226 11.8071 74.4602 11.8071C75.687 11.8071 76.5305 12.3397 76.5305 13.1766C76.5305 13.8614 76.0512 14.2799 74.4794 14.2799H73.636C71.1249 14.2799 69.438 15.288 69.438 17.5897C69.438 20.0054 71.2207 21.1087 73.3101 21.1087C74.8628 21.1087 76.1854 20.4239 76.703 18.9592C76.7605 20.0245 77.4697 20.7663 78.8115 20.7663H80V18.9402H79.1182ZM76.588 15.8967C76.588 18.2554 75.3036 19.2826 73.6551 19.2826C72.2175 19.2826 71.6424 18.4457 71.6424 17.5897C71.6424 16.7717 72.1408 16.106 73.6743 16.106H73.981C75.457 16.106 76.3771 15.5924 76.5688 14.6984H76.588V15.8967Z" fill="white"/>
<rect width="30" height="30" rx="9.8707" fill="#AC8EFF"/>
<path d="M16.0637 8.67213C16.4459 10.2787 16.3167 11.6919 15.7752 11.8286C15.2336 11.9653 14.4847 10.7737 14.1025 9.16714C13.7203 7.56057 13.8495 6.14737 14.3911 6.01068C14.9327 5.87399 15.6815 7.06556 16.0637 8.67213Z" fill="#1A1A1A"/>
<path d="M22.3748 10.0534C21.5284 9.14325 19.8444 9.38994 18.6136 10.6044C17.3827 11.8189 17.0711 13.5412 17.9175 14.4513C18.7639 15.3615 20.4479 15.1148 21.6788 13.9003C22.9096 12.6859 23.2213 10.9635 22.3748 10.0534Z" fill="#1A1A1A"/>
<path d="M15.6428 23.9899C16.1844 23.8532 16.2946 22.3601 15.8889 20.6549C15.4833 18.9497 14.7154 17.6782 14.1738 17.8149C13.6322 17.9516 13.5221 19.4447 13.9277 21.1499C14.3334 22.8551 15.1013 24.1266 15.6428 23.9899Z" fill="#1A1A1A"/>
<path d="M10.1221 10.8866C11.6845 11.3541 12.8262 12.1742 12.6721 12.7184C12.518 13.2626 11.1265 13.3248 9.564 12.8573C8.00153 12.3899 6.85983 11.5697 7.01394 11.0256C7.16804 10.4814 8.5596 10.4192 10.1221 10.8866Z" fill="#1A1A1A"/>
<path d="M20.2631 17.0316C21.9215 17.5278 23.141 18.3712 22.9869 18.9154C22.8328 19.4596 21.3634 19.4985 19.7051 19.0023C18.0467 18.5062 16.8272 17.6628 16.9813 17.1186C17.1355 16.5744 18.6048 16.5355 20.2631 17.0316Z" fill="#1A1A1A"/>
<path d="M11.8802 15.8898C11.4927 15.4823 10.2218 16.0754 9.04156 17.2145C7.8613 18.3536 7.21861 19.6074 7.60607 20.0149C7.99354 20.4224 9.26444 19.8293 10.4447 18.6902C11.625 17.5511 12.2677 16.2973 11.8802 15.8898Z" fill="#1A1A1A"/>
</g>
<defs>
<clipPath id="clip0_14011_119165">
<rect width="80" height="30" fill="white"/>
</clipPath>
</defs>
</svg>
