<svg class="pera-icon" width="24" height="24" viewBox="0 0 24 24" fill="none" xmlns="http://www.w3.org/2000/svg">
<path d="M13.1967 4.96903C13.6267 6.75411 13.4813 8.32433 12.8721 8.47621C12.2628 8.62809 11.4203 7.30412 10.9904 5.51904C10.5604 3.73396 10.7057 2.16375 11.315 2.01186C11.9243 1.85998 12.7667 3.18395 13.1967 4.96903Z" fill="var(--helper-purple-900)"/>
<path d="M20.2967 6.50377C19.3445 5.4925 17.45 5.7666 16.0653 7.11599C14.6806 8.46539 14.33 10.3791 15.2822 11.3904C16.2344 12.4016 18.1289 12.1275 19.5136 10.7781C20.8983 9.42875 21.2489 7.51505 20.2967 6.50377Z" fill="var(--helper-purple-900)"/>
<path d="M12.7232 21.9888C13.3325 21.8369 13.4564 20.1779 13 18.2832C12.5437 16.3886 11.6798 14.9758 11.0705 15.1277C10.4613 15.2795 10.3373 16.9386 10.7937 18.8332C11.2501 20.7279 12.1139 22.1407 12.7232 21.9888Z" fill="var(--helper-purple-900)"/>
<path d="M6.51232 7.42961C8.2701 7.94902 9.55451 8.86026 9.38114 9.46492C9.20777 10.0696 7.64227 10.1387 5.8845 9.61926C4.12672 9.09985 2.84231 8.18861 3.01568 7.58395C3.18905 6.9793 4.75455 6.91019 6.51232 7.42961Z" fill="var(--helper-purple-900)"/>
<path d="M17.921 14.2574C19.7867 14.8087 21.1586 15.7458 20.9852 16.3504C20.8119 16.9551 19.1589 16.9983 17.2932 16.447C15.4275 15.8957 14.0556 14.9586 14.229 14.354C14.4024 13.7493 16.0554 13.7061 17.921 14.2574Z" fill="var(--helper-purple-900)"/>
<path d="M8.49022 12.9887C8.05432 12.5359 6.62456 13.1949 5.29676 14.4606C3.96896 15.7262 3.24593 17.1193 3.68183 17.5721C4.11773 18.0249 5.5475 17.3659 6.8753 16.1002C8.2031 14.8345 8.92613 13.4415 8.49022 12.9887Z" fill="var(--helper-purple-900)"/>
</svg>

