<svg width="44" height="44" viewBox="0 0 44 44" fill="none" xmlns="http://www.w3.org/2000/svg">
<rect x="3.5" y="7.5" width="36" height="26" rx="5.5" stroke="#6B46FE" stroke-width="3"/>
<path d="M22.4973 14.5237C22.8556 16.041 22.7344 17.3757 22.2267 17.5048C21.719 17.6339 21.0169 16.5085 20.6586 14.9912C20.3003 13.4739 20.4214 12.1392 20.9292 12.0101C21.4369 11.881 22.1389 13.0064 22.4973 14.5237Z" fill="#6B46FE"/>
<path d="M28.4139 15.8282C27.6204 14.9686 26.0417 15.2016 24.8877 16.3486C23.7338 17.4956 23.4417 19.1222 24.2352 19.9818C25.0287 20.8414 26.6074 20.6084 27.7613 19.4614C28.9153 18.3144 29.2074 16.6878 28.4139 15.8282Z" fill="#6B46FE"/>
<path d="M22.1027 28.9905C22.6104 28.8614 22.7137 27.4512 22.3334 25.8407C21.9531 24.2303 21.2332 23.0294 20.7254 23.1585C20.2177 23.2876 20.1144 24.6978 20.4947 26.3083C20.875 27.9187 21.5949 29.1196 22.1027 28.9905Z" fill="#6B46FE"/>
<path d="M16.9269 16.6152C18.3917 17.0567 19.4621 17.8312 19.3176 18.3452C19.1731 18.8591 17.8686 18.9179 16.4037 18.4764C14.9389 18.0349 13.8686 17.2603 14.0131 16.7464C14.1575 16.2324 15.4621 16.1737 16.9269 16.6152Z" fill="#6B46FE"/>
<path d="M26.4342 22.4188C27.9889 22.8874 29.1322 23.6839 28.9877 24.1979C28.8432 24.7118 27.4657 24.7486 25.911 24.28C24.3563 23.8114 23.213 23.0148 23.3575 22.5009C23.502 21.9869 24.8795 21.9502 26.4342 22.4188Z" fill="#6B46FE"/>
<path d="M18.5752 21.3404C18.2119 20.9555 17.0205 21.5157 15.914 22.5915C14.8075 23.6673 14.2049 24.8514 14.5682 25.2363C14.9314 25.6211 16.1229 25.061 17.2294 23.9852C18.3359 22.9094 18.9384 21.7253 18.5752 21.3404Z" fill="#6B46FE"/>
<path d="M16 39C21 39.0001 23.5 39.0001 28 39" stroke="#6B46FE" stroke-width="3" stroke-linecap="round"/>
</svg>
