<svg width="146" height="32" viewBox="0 0 146 32" fill="none" xmlns="http://www.w3.org/2000/svg">
<path fill-rule="evenodd" clip-rule="evenodd" d="M69.7226 8.39052C70.2433 7.86983 71.0875 7.86983 71.6082 8.39052L78.2748 15.0572C78.5249 15.3072 78.6654 15.6464 78.6654 16C78.6654 16.3536 78.5249 16.6928 78.2748 16.9428L71.6082 23.6095C71.0875 24.1302 70.2433 24.1302 69.7226 23.6095C69.2019 23.0888 69.2019 22.2446 69.7226 21.7239L74.1131 17.3333H58.6654C57.929 17.3333 57.332 16.7364 57.332 16C57.332 15.2636 57.929 14.6667 58.6654 14.6667L74.1131 14.6667L69.7226 10.2761C69.2019 9.75544 69.2019 8.91122 69.7226 8.39052Z" fill="var(--helper-purple-900)"/>
<circle opacity="0.2" cx="4" cy="16" r="3" fill="var(--helper-purple-900)" stroke="var(--helper-purple-900)" stroke-width="2"/>
<circle opacity="0.4" cx="36" cy="16" r="3" fill="var(--helper-purple-900)" stroke="var(--helper-purple-900)" stroke-width="2"/>
<circle opacity="0.4" cx="100" cy="16" r="3" fill="var(--helper-purple-900)" stroke="var(--helper-purple-900)" stroke-width="2"/>
<circle opacity="0.2" cx="142" cy="16" r="3" fill="var(--helper-purple-900)" stroke="var(--helper-purple-900)" stroke-width="2"/>
</svg>
