<svg class="pera-logo-with-text" width="103" height="44" viewBox="0 0 103 44" fill="none" xmlns="http://www.w3.org/2000/svg">
  <path  d="m 101.743 25.0262 c -0.394 0 -0.577 -0.2334 -0.577 -0.7001 v -6.2746 c 0 -3.0077 -1.4693 -5.2117 -5.7976 -5.2117 -4.1971 0 -6.112 2.0743 -6.3219 5.0302 h 2.8856 c 0.1836 -1.6076 1.4689 -2.567 3.4363 -2.567 1.6789 0 2.8331 0.726 2.8331 1.8669 0 0.9334 -0.6558 1.5038 -2.8068 1.5038 h -1.1542 c -3.4364 0 -5.7448 1.3742 -5.7448 4.5116 0 3.2929 2.4395 4.7967 5.2988 4.7967 2.1248 0 3.9348 -0.9334 4.6431 -2.9299 0.0787 1.452 1.0493 2.4632 2.8854 2.4632 h 1.626 v -2.4891 z m -3.4628 -4.1485 c 0 3.2151 -1.7575 4.6152 -4.0135 4.6152 -1.9674 0 -2.7544 -1.1408 -2.7544 -2.3076 0 -1.1149 0.6821 -2.0224 2.7806 -2.0224 h 0.4197 c 2.0199 0 3.279 -0.7001 3.5414 -1.9187 h 0.0262 z m -18.3423 6.6376 h 2.8855 v -8.0378 c 0 -2.7484 1.5215 -4.1745 3.8823 -4.1745 h 1.5477 v -2.4632 h -1.2329 c -2.1248 0 -3.4364 1.4002 -4.1971 2.6188 h -0.0525 v -2.2039 h -2.833 z m -2.1213 -8.4267 c 0 -3.5781 -2.8855 -6.2488 -6.8203 -6.2488 -4.1972 0 -7.1089 2.8262 -7.1089 7.5452 0 4.5375 2.8593 7.5452 7.1089 7.5452 3.4888 0 6.0858 -2.0224 6.6891 -4.7968 h -3.1478 c -0.4984 1.4002 -1.8625 2.3336 -3.5413 2.3336 -2.1511 0 -3.725 -1.5298 -4.066 -4.0708 H 77.8166 Z M 70.9963 15.303 c 2.1248 0 3.5937 1.452 3.9085 3.5522 H 66.9565 C 67.3238 16.8328 68.819 15.303 70.9963 15.303 Z M 51.096 13.9548 v -0.7001 h -2.8855 v 18.6685 h 2.8855 v -5.0301 c 0 -0.5445 0 -0.9853 -0.0524 -1.5817 h 0.0524 c 1.0493 1.7113 2.8331 2.6188 4.9316 2.6188 3.5413 0 6.6367 -2.6706 6.6367 -7.623 0 -4.8486 -3.0954 -7.4674 -6.6367 -7.4674 -2.0198 0 -3.8036 0.8816 -4.9316 2.6188 h -0.0524 c 0.0524 -0.5704 0.0524 -0.9853 0.0524 -1.5038 z m 4.1971 11.5122 c -2.6756 -0.0259 -4.2233 -2.2817 -4.2233 -5.1857 0 -2.7484 1.5477 -4.9523 4.2233 -4.9783 2.6232 -0.0259 4.3545 1.9965 4.3545 5.0042 0 3.0855 -1.7313 5.1857 -4.3545 5.1598 z M 15.748 23.6672 c -0.7897 -0.8186 -3.3798 0.3728 -5.78519 2.661 -2.40541 2.2882 -3.71522 4.8067 -2.92556 5.6252 0.78967 0.8186 3.37975 -0.3727 5.78515 -2.6609 2.4054 -2.2882 3.7153 -4.8067 2.9256 -5.6253 z m 17.0846 2.2936 c 3.3797 0.9967 5.865 2.6909 5.5509 3.784 -0.314 1.0932 -3.3085 1.1714 -6.6883 0.1747 -3.3798 -0.9967 -5.8651 -2.6909 -5.551 -3.784 0.3141 -1.0932 3.3086 -1.1714 6.6884 -0.1747 z M 12.1649 13.6169 c 3.1843 0.9391 5.5111 2.5865 5.197 3.6797 -0.314 1.0931 -3.15 1.218 -6.3344 0.279 C 7.8432 16.6366 5.5164 14.9891 5.83047 13.896 6.14454 12.8028 8.98055 12.6779 12.1649 13.6169 Z m 11.2514 26.3215 c 1.1037 -0.2745 1.3283 -3.2739 0.5015 -6.6993 -0.8267 -3.4253 -2.3917 -5.9795 -3.4954 -5.7049 -1.1037 0.2746 -1.3283 3.274 -0.5015 6.6993 0.8267 3.4253 2.3917 5.9795 3.4954 5.7049 z M 37.1362 11.9431 c -1.725 -1.8283 -5.157 -1.3327 -7.6655 1.1069 -2.5085 2.4395 -3.1436 5.8993 -1.4186 7.7276 1.7251 1.8282 5.157 1.3327 7.6655 -1.1069 2.5085 -2.4395 3.1436 -5.8993 1.4186 -7.7276 z M 24.2741 9.16848 c 0.779 3.22722 0.5156 6.06602 -0.5881 6.34062 -1.1037 0.2746 -2.6299 -2.119 -3.4089 -5.3463 -0.7789 -3.2272 -0.5156 -6.06598 0.5882 -6.34057 1.1037 -0.27458 2.6299 2.11901 3.4088 5.34625" fill="#3c3c49"/>
</svg>
