<svg class="qr-code-icon" width="24" height="24" viewBox="0 0 24 24" fill="none" xmlns="http://www.w3.org/2000/svg">
<path fill-rule="evenodd" clip-rule="evenodd" d="M2.5 4.66667C2.5 3.19391 3.69391 2 5.16667 2H8.83333C10.3061 2 11.5 3.19391 11.5 4.66667V8.33333C11.5 9.80609 10.3061 11 8.83333 11H5.16667C3.69391 11 2.5 9.80609 2.5 8.33333V4.66667ZM5.16667 4C4.79848 4 4.5 4.29848 4.5 4.66667V8.33333C4.5 8.70152 4.79848 9 5.16667 9H8.83333C9.20152 9 9.5 8.70152 9.5 8.33333V4.66667C9.5 4.29848 9.20152 4 8.83333 4H5.16667ZM13.5 4.66667C13.5 3.19391 14.6939 2 16.1667 2H19.8333C21.3061 2 22.5 3.19391 22.5 4.66667V8.33333C22.5 9.80609 21.3061 11 19.8333 11H16.1667C14.6939 11 13.5 9.80609 13.5 8.33333V4.66667ZM16.1667 4C15.7985 4 15.5 4.29848 15.5 4.66667V8.33333C15.5 8.70152 15.7985 9 16.1667 9H19.8333C20.2015 9 20.5 8.70152 20.5 8.33333V4.66667C20.5 4.29848 20.2015 4 19.8333 4H16.1667ZM2.5 15.6667C2.5 14.1939 3.69391 13 5.16667 13H8.83333C10.3061 13 11.5 14.1939 11.5 15.6667V19.3333C11.5 20.8061 10.3061 22 8.83333 22H5.16667C3.69391 22 2.5 20.8061 2.5 19.3333V15.6667ZM5.16667 15C4.79848 15 4.5 15.2985 4.5 15.6667V19.3333C4.5 19.7015 4.79848 20 5.16667 20H8.83333C9.20152 20 9.5 19.7015 9.5 19.3333V15.6667C9.5 15.2985 9.20152 15 8.83333 15H5.16667ZM13.5586 13.2939H16.9115V14.4111H19.1465V13.2939H22.4994V15.2939H19.1468V16.4111L19.1459 17.5293H18.0283V19.7646H15.7939V22H13.5586V18.8818H15.793V16.4111H13.5586V13.2939ZM22.5009 18V22H20.2656V18H22.5009ZM20.2646 22H18.0293V20H20.2646V22Z" fill="#3C3C49"/>
</svg>
