<svg class="receive-icon" width="16" height="16" viewBox="0 0 16 16" fill="none" xmlns="http://www.w3.org/2000/svg">
<path fill-rule="evenodd" clip-rule="evenodd" d="M4.6723 5.90154C5.0436 5.90154 5.3446 6.20254 5.3446 6.57384L5.3446 9.70463L10.8523 4.19691C11.1149 3.93436 11.5405 3.93436 11.8031 4.19691C12.0656 4.45946 12.0656 4.88514 11.8031 5.14768L6.29537 10.6554L9.42616 10.6554C9.79746 10.6554 10.0985 10.9564 10.0985 11.3277C10.0985 11.699 9.79746 12 9.42616 12H4.6723C4.49399 12 4.32299 11.9292 4.19691 11.8031C4.07083 11.677 4 11.506 4 11.3277L4 6.57384C4 6.20254 4.301 5.90154 4.6723 5.90154Z" fill="#25B6A3"/>
</svg>
