<svg class="reddit-icon" width="20" height="20" viewBox="0 0 20 20" fill="none" xmlns="http://www.w3.org/2000/svg">
<path d="M19.1663 9.3007C19.1663 8.16281 18.2628 7.2592 17.1622 7.2592C16.62 7.2592 16.1272 7.47674 15.7658 7.82814C14.3859 6.82412 12.4967 6.17151 10.3939 6.08785L11.3139 1.70364L14.3037 2.35625C14.3366 3.126 14.9608 3.74514 15.7329 3.74514C16.5215 3.74514 17.1622 3.09253 17.1622 2.28932C17.1622 1.48611 16.5215 0.833496 15.7329 0.833496C15.1744 0.833496 14.6816 1.16817 14.4516 1.65344L11.1168 0.933899C11.0182 0.917165 10.9196 0.933898 10.8539 0.984099C10.7718 1.0343 10.7225 1.11797 10.7061 1.21837L9.68755 6.10458C7.55194 6.17151 5.6299 6.82413 4.23355 7.84488C3.87214 7.49347 3.3793 7.27593 2.83719 7.27593C1.72011 7.27593 0.833008 8.19628 0.833008 9.31743C0.833008 10.1541 1.32584 10.8569 2.0158 11.1749C1.98295 11.3757 1.96652 11.5765 1.96652 11.794C1.96652 14.9399 5.56419 17.5002 9.99967 17.5002C14.4352 17.5002 18.0328 14.9567 18.0328 11.794C18.0328 11.5932 18.0164 11.3757 17.9835 11.1749C18.6735 10.8569 19.1663 10.1374 19.1663 9.3007ZM5.39991 10.7565C5.39991 9.95331 6.04059 9.3007 6.82912 9.3007C7.61766 9.3007 8.25834 9.95331 8.25834 10.7565C8.25834 11.5597 7.61766 12.2123 6.82912 12.2123C6.04059 12.2291 5.39991 11.5597 5.39991 10.7565ZM13.4002 14.622C12.4146 15.626 10.5418 15.6929 9.99967 15.6929C9.44113 15.6929 7.56837 15.6093 6.59914 14.622C6.45129 14.4714 6.45129 14.2371 6.59914 14.0865C6.74699 13.9359 6.97697 13.9359 7.12482 14.0865C7.74908 14.7224 9.06329 14.9399 9.99967 14.9399C10.9361 14.9399 12.2667 14.7224 12.8745 14.0865C13.0224 13.9359 13.2524 13.9359 13.4002 14.0865C13.5316 14.2371 13.5316 14.4714 13.4002 14.622ZM13.1374 12.2291C12.3488 12.2291 11.7082 11.5765 11.7082 10.7733C11.7082 9.97004 12.3488 9.31743 13.1374 9.31743C13.9259 9.31743 14.5666 9.97004 14.5666 10.7733C14.5666 11.5597 13.9259 12.2291 13.1374 12.2291Z" fill="#BCBCC8"/>
</svg>
