<svg class="safe-icon" width="24" height="24" viewBox="0 0 24 24" fill="none" xmlns="http://www.w3.org/2000/svg">
<path fill-rule="evenodd" clip-rule="evenodd" d="M10.9276 3.31572C10.9274 3.31579 10.9278 3.31566 10.9276 3.31572L5.35333 5.59745C5.19226 5.6623 4.99098 5.82104 4.82601 6.06645C4.66086 6.3121 4.58984 6.55871 4.58984 6.72979V11.1198C4.58984 15.5434 7.82301 19.7401 12.2541 20.9654C12.4112 21.008 12.5885 21.008 12.7456 20.9654C17.1767 19.7401 20.4099 15.5434 20.4099 11.1198L20.4099 11.1175L20.4199 6.72979C20.4199 6.72944 20.4199 6.7291 20.4199 6.72875C20.4196 6.56128 20.3485 6.31589 20.1812 6.06835C20.0138 5.82049 19.8106 5.66034 19.6522 5.59573L14.0821 3.31572C14.0819 3.31565 14.0823 3.3158 14.0821 3.31572C13.0745 2.90482 11.9351 2.9048 10.9276 3.31572ZM10.1721 1.46392C11.6642 0.855124 13.3455 0.855124 14.8376 1.46392L14.8387 1.46435L20.4075 3.74386C20.4078 3.74398 20.4072 3.74374 20.4075 3.74386C21.0087 3.98933 21.5011 4.44933 21.8385 4.94873C22.1759 5.44818 22.4199 6.07728 22.4199 6.72979L22.4199 6.73207L22.4099 11.1198C22.4099 11.1203 22.4099 11.1208 22.4099 11.1213C22.4091 16.4765 18.5435 21.4384 13.2762 22.8937L13.273 22.8946C12.7707 23.0315 12.229 23.0315 11.7267 22.8946L11.7235 22.8937C6.45568 21.4382 2.58984 16.4755 2.58984 11.1198V6.72979C2.58984 6.08087 2.82883 5.45248 3.1662 4.95064C3.50318 4.44936 3.99585 3.98881 4.6034 3.74335L10.1721 1.46392ZM12.5 9.5C11.9477 9.5 11.5 9.94772 11.5 10.5C11.5 11.0523 11.9477 11.5 12.5 11.5C13.0523 11.5 13.5 11.0523 13.5 10.5C13.5 9.94772 13.0523 9.5 12.5 9.5ZM9.5 10.5C9.5 8.84315 10.8431 7.5 12.5 7.5C14.1569 7.5 15.5 8.84315 15.5 10.5C15.5 11.8062 14.6652 12.9175 13.5 13.3293V15.5C13.5 16.0523 13.0523 16.5 12.5 16.5C11.9477 16.5 11.5 16.0523 11.5 15.5V13.3293C10.3348 12.9175 9.5 11.8062 9.5 10.5Z" fill="#3C3C49"/>
</svg>
