
<svg className="search-icon" width="25" height="24" viewBox="0 0 25 24" fill="none" xmlns="http://www.w3.org/2000/svg">
<path fill-rule="evenodd" clip-rule="evenodd" d="M12 3C7.30558 3 3.5 6.80558 3.5 11.5C3.5 16.1944 7.30558 20 12 20C16.6944 20 20.5 16.1944 20.5 11.5C20.5 6.80558 16.6944 3 12 3ZM1.5 11.5C1.5 5.70101 6.20101 1 12 1C17.799 1 22.5 5.70101 22.5 11.5C22.5 17.299 17.799 22 12 22C6.20101 22 1.5 17.299 1.5 11.5ZM21.2071 19.2929L23.2071 21.2929C23.5976 21.6834 23.5976 22.3166 23.2071 22.7071C22.8166 23.0976 22.1834 23.0976 21.7929 22.7071L19.7929 20.7071C19.4024 20.3166 19.4024 19.6834 19.7929 19.2929C20.1834 18.9024 20.8166 18.9024 21.2071 19.2929Z" fill="#3C3C49"/>
</svg>
