<svg width="16" height="16" viewBox="0 0 16 16" fill="none" xmlns="http://www.w3.org/2000/svg">
<path fill-rule="evenodd" clip-rule="evenodd" d="M11.3277 10.0985C10.9564 10.0985 10.6554 9.79746 10.6554 9.42616L10.6554 6.29537L5.14768 11.8031C4.88513 12.0656 4.45946 12.0656 4.19691 11.8031C3.93436 11.5405 3.93436 11.1149 4.19691 10.8523L9.70463 5.34459L6.57384 5.34459C6.20254 5.34459 5.90154 5.0436 5.90154 4.6723C5.90154 4.301 6.20254 4 6.57384 4L11.3277 4C11.506 4 11.677 4.07083 11.8031 4.19691C11.9292 4.32299 12 4.49399 12 4.6723L12 9.42616C12 9.79746 11.699 10.0985 11.3277 10.0985Z" fill="#E54343"/>
</svg>
