<svg class="settings-icon" width="24" height="24" viewBox="0 0 24 24" fill="none" xmlns="http://www.w3.org/2000/svg">
<path fill-rule="evenodd" clip-rule="evenodd" d="M14.5027 1.60537C14.5035 1.60587 14.5043 1.60636 14.5052 1.60685L20.0005 4.78415C20.0206 4.79575 20.0403 4.80805 20.0595 4.82101L20.0904 4.84187C20.564 5.16158 20.9658 5.43276 21.2772 5.67947C21.602 5.93677 21.9001 6.22138 22.1158 6.59442C22.3372 6.97746 22.4247 7.3715 22.464 7.77107C22.5001 8.1383 22.5 8.57616 22.5 9.06676V14.933C22.5 15.4236 22.5001 15.8614 22.464 16.2287C22.4247 16.6282 22.3372 17.0223 22.1158 17.4053C21.9001 17.7784 21.602 18.063 21.2772 18.3203C20.9658 18.567 20.564 18.8381 20.0904 19.1579L20.0595 19.1787C20.0403 19.1917 20.0206 19.204 20.0005 19.2156L14.5052 22.3929C14.5043 22.3934 14.5035 22.3939 14.5027 22.3943C13.9024 22.745 13.1749 22.8899 12.5038 22.8899C11.8311 22.8899 11.1026 22.7443 10.4995 22.3956C10.4994 22.3956 10.4995 22.3956 10.4995 22.3956L4.99946 19.2156C4.9794 19.204 4.95974 19.1917 4.94053 19.1787L4.9096 19.1578C4.43598 18.8382 4.03407 18.5669 3.72252 18.3199C3.39742 18.0622 3.09918 17.777 2.88361 17.403C2.66247 17.0193 2.57521 16.6245 2.53601 16.224C2.49994 15.8556 2.49997 15.4161 2.5 14.9229L2.5 9.06676C2.49997 8.57617 2.49994 8.1383 2.53605 7.77107C2.57534 7.3715 2.66282 6.97746 2.88423 6.59442C3.09987 6.22138 3.398 5.93677 3.72278 5.67947C4.0342 5.43276 4.43596 5.16158 4.90965 4.84186L4.94053 4.82101C4.95974 4.80805 4.9794 4.79575 4.99946 4.78415L10.4994 1.6042C10.4994 1.60418 10.4993 1.60422 10.4994 1.6042C11.1025 1.25543 11.8311 1.10986 12.5038 1.10986C13.1749 1.10986 13.9024 1.25477 14.5027 1.60537ZM12.5038 3.10986C12.0889 3.10986 11.7275 3.20433 11.5006 3.33553L6.03066 6.49816C5.53391 6.83351 5.20446 7.05721 4.96472 7.24713C4.727 7.43546 4.65014 7.53585 4.61577 7.59531C4.58718 7.64477 4.54967 7.73072 4.52645 7.96678C4.50112 8.22446 4.5 8.56294 4.5 9.10986V14.8799C4.5 15.4292 4.50111 15.7698 4.5265 16.0292C4.54979 16.2671 4.58754 16.3542 4.6164 16.4043C4.65083 16.464 4.72758 16.5644 4.96499 16.7526C5.20458 16.9426 5.53386 17.1662 6.03067 17.5016L11.5005 20.6642C11.7274 20.7953 12.0889 20.8899 12.5038 20.8899C12.9192 20.8899 13.2756 20.7952 13.4948 20.6668L13.4995 20.6641L18.9693 17.5016C19.4661 17.1662 19.7955 16.9425 20.0353 16.7526C20.273 16.5643 20.3499 16.4639 20.3842 16.4044C20.4128 16.355 20.4503 16.269 20.4736 16.0329C20.4989 15.7753 20.5 15.4368 20.5 14.8899V9.10986C20.5 8.56294 20.4989 8.22446 20.4736 7.96678C20.4503 7.73072 20.4128 7.64477 20.3842 7.59531C20.3499 7.53585 20.273 7.43546 20.0353 7.24713C19.7955 7.05721 19.4661 6.83351 18.9693 6.49816L13.4948 3.33289C13.2756 3.20457 12.9192 3.10986 12.5038 3.10986ZM12.5 10C11.3954 10 10.5 10.8954 10.5 12C10.5 13.1046 11.3954 14 12.5 14C13.6046 14 14.5 13.1046 14.5 12C14.5 10.8954 13.6046 10 12.5 10ZM8.5 12C8.5 9.79086 10.2909 8 12.5 8C14.7091 8 16.5 9.79086 16.5 12C16.5 14.2091 14.7091 16 12.5 16C10.2909 16 8.5 14.2091 8.5 12Z" fill="#3C3C49"/>
</svg>
