<svg class="share-icon" width="24" height="24" viewBox="0 0 24 24" fill="none" xmlns="http://www.w3.org/2000/svg">
<path fill-rule="evenodd" clip-rule="evenodd" d="M11.7933 1.79289C12.1838 1.40237 12.817 1.40237 13.2075 1.79289L16.5575 5.14289C16.948 5.53342 16.948 6.16658 16.5575 6.55711C16.167 6.94763 15.5338 6.94763 15.1433 6.55711L13.5 4.91382V15.0001C13.5 15.5524 13.0523 16.0001 12.5 16.0001C11.9477 16.0001 11.5 15.5524 11.5 15.0001V4.9146L9.8575 6.55711C9.46697 6.94763 8.83381 6.94763 8.44328 6.55711C8.05276 6.16658 8.05276 5.53342 8.44328 5.14289L11.7933 1.79289ZM15.9442 8.81411C15.9915 8.26386 16.476 7.85621 17.0263 7.90359C18.9755 8.07144 20.5496 8.67537 21.602 9.97232C22.632 11.2417 23.0105 12.9933 23.0105 15.1099V15.2399C23.0105 17.5738 22.5493 19.4678 21.2638 20.7533C19.9784 22.0387 18.0844 22.4999 15.7505 22.4999H9.24047C6.90657 22.4999 5.01254 22.0387 3.72711 20.7533C2.44169 19.4678 1.98047 17.5738 1.98047 15.2399V15.1099C1.98047 13.0086 2.35391 11.2679 3.3671 10.0015C4.40341 8.70607 5.95504 8.09345 7.87765 7.91422C8.42755 7.86296 8.91489 8.26718 8.96615 8.81708C9.01741 9.36699 8.61319 9.85432 8.06329 9.90559C6.44589 10.0564 5.50253 10.5337 4.92884 11.2508C4.33203 11.9969 3.98047 13.1912 3.98047 15.1099V15.2399C3.98047 17.376 4.41425 18.612 5.14133 19.339C5.8684 20.0661 7.10437 20.4999 9.24047 20.4999H15.7505C17.8866 20.4999 19.1225 20.0661 19.8496 19.339C20.5767 18.612 21.0105 17.376 21.0105 15.2399V15.1099C21.0105 13.1765 20.654 11.9781 20.0489 11.2325C19.4663 10.5144 18.5054 10.0384 16.8547 9.89622C16.3044 9.84883 15.8968 9.36436 15.9442 8.81411Z" fill="#3C3C49"/>
</svg>
