<svg class="sync-icon" width="24" height="24" viewBox="0 0 24 24" fill="none" xmlns="http://www.w3.org/2000/svg">
<path fill-rule="evenodd" clip-rule="evenodd" d="M14.6298 1.5073C14.8073 1.19379 15.1397 1 15.5 1C19.9223 1 23.5 4.57772 23.5 9C23.5 9.55228 23.0523 10 22.5 10C21.9477 10 21.5 9.55228 21.5 9C21.5 6.36708 19.8107 4.13435 17.4552 3.32483C17.6714 3.78376 17.5088 4.34091 17.0645 4.6075C16.5909 4.89164 15.9766 4.73807 15.6925 4.26449L14.6425 2.51449C14.4571 2.20556 14.4523 1.82081 14.6298 1.5073ZM16.6281 9.14399C16.2601 7.82219 15.5022 6.85592 14.5154 6.27546C13.3918 5.61457 12.0668 5.50981 10.8883 5.81868C9.70976 6.12757 8.60613 6.86878 7.94819 7.99432C7.43205 8.87729 7.22384 9.93953 7.41449 11.1062C4.50901 12.2948 4.92571 17.0901 8.5383 17.3472C8.56193 17.3489 8.58561 17.3498 8.6093 17.3498H15.2736C16.3429 17.3612 17.3582 16.9528 18.1328 16.258C19.4628 15.0918 19.74 13.3625 19.3035 11.9285C18.9284 10.6967 17.9946 9.57756 16.6281 9.14399ZM8.6463 12.85C8.75634 12.8492 8.86812 12.8302 8.97755 12.7908C9.49729 12.604 9.76719 12.0313 9.58039 11.5115C9.18738 10.418 9.33225 9.58971 9.67484 9.00363C10.0313 8.39386 10.6614 7.9457 11.3954 7.75334C12.1293 7.56097 12.8956 7.64308 13.5014 7.99937C14.0834 8.34169 14.6131 8.99279 14.8026 10.1425C14.8746 10.5788 15.2247 10.9161 15.6634 10.9718C16.5082 11.079 17.1422 11.6965 17.3902 12.511C17.638 13.325 17.4566 14.193 16.8113 14.7567L16.8004 14.7665C16.3773 15.1473 15.8374 15.3566 15.2917 15.3498L8.64899 15.3498C7.09696 15.2098 7.13271 12.9898 8.6463 12.85ZM2.5 14C3.05228 14 3.5 14.4477 3.5 15C3.5 17.6329 5.18928 19.8656 7.54482 20.6752C7.32858 20.2162 7.49121 19.6591 7.93552 19.3925C8.4091 19.1084 9.02336 19.2619 9.30751 19.7355L10.3575 21.4855C10.5429 21.7944 10.5477 22.1792 10.3702 22.4927C10.1927 22.8062 9.86027 23 9.5 23C5.07772 23 1.5 19.4223 1.5 15C1.5 14.4477 1.94772 14 2.5 14Z" fill="#3C3C49"/>
</svg>
