<svg class="text-file-icon" width="52" height="60" viewBox="0 0 52 60" fill="none" xmlns="http://www.w3.org/2000/svg">
<path d="M0 6C0 2.68629 2.68629 0 6 0H34.2449C35.8912 0 37.4652 0.676441 38.5981 1.87087L50.3532 14.2638C51.4106 15.3786 52 16.8565 52 18.393V54C52 57.3137 49.3137 60 46 60H6C2.68629 60 0 57.3137 0 54V6Z" fill="#E4E4E7"/>
<rect x="6" y="35" width="26" height="19" rx="9.5" fill="white"/>
<path d="M11.199 48.066C10.979 48.066 10.7957 47.9963 10.649 47.857C10.5097 47.7103 10.44 47.538 10.44 47.34C10.44 47.1347 10.5097 46.9623 10.649 46.823C10.7957 46.6763 10.979 46.603 11.199 46.603C11.419 46.603 11.5987 46.6763 11.738 46.823C11.8773 46.9623 11.947 47.1347 11.947 47.34C11.947 47.538 11.8773 47.7103 11.738 47.857C11.5987 47.9963 11.419 48.066 11.199 48.066ZM15.4098 48C14.8744 48 14.4491 47.8717 14.1338 47.615C13.8184 47.351 13.6608 46.8853 13.6608 46.218V43.523H12.7258V42.544H13.6608L13.8038 41.158H14.8268V42.544H16.3668V43.523H14.8268V46.218C14.8268 46.5187 14.8891 46.7277 15.0138 46.845C15.1458 46.955 15.3694 47.01 15.6848 47.01H16.3118V48H15.4098ZM17.041 48L18.977 45.272L17.041 42.544H18.284L19.747 44.634L21.199 42.544H22.453L20.517 45.272L22.453 48H21.199L19.747 45.91L18.284 48H17.041ZM25.69 48C25.1547 48 24.7294 47.8717 24.414 47.615C24.0987 47.351 23.941 46.8853 23.941 46.218V43.523H23.006V42.544H23.941L24.084 41.158H25.107V42.544H26.647V43.523H25.107V46.218C25.107 46.5187 25.1694 46.7277 25.294 46.845C25.426 46.955 25.6497 47.01 25.965 47.01H26.592V48H25.69Z" fill="#71717A"/>
</svg>

