<svg class="tick-circle-icon" width="24" height="24" viewBox="0 0 24 24" fill="none" xmlns="http://www.w3.org/2000/svg">
<path fill-rule="evenodd" clip-rule="evenodd" d="M1.5 12C1.5 5.94772 6.44772 1 12.5 1C18.5523 1 23.5 5.94772 23.5 12C23.5 18.0523 18.5523 23 12.5 23C6.44772 23 1.5 18.0523 1.5 12ZM12.5 3C7.55228 3 3.5 7.05228 3.5 12C3.5 16.9477 7.55228 21 12.5 21C17.4477 21 21.5 16.9477 21.5 12C21.5 7.05228 17.4477 3 12.5 3ZM17.4577 8.29352C17.8479 8.68439 17.8474 9.31755 17.4565 9.70773L11.7865 15.3677C11.3959 15.7577 10.7632 15.7574 10.3729 15.3671L7.54289 12.5371C7.15237 12.1466 7.15237 11.5134 7.54289 11.1229C7.93342 10.7324 8.56658 10.7324 8.95711 11.1229L11.0806 13.2464L16.0435 8.29227C16.4344 7.90209 17.0676 7.90265 17.4577 8.29352Z" fill="#3C3C49"/>
</svg>
