<svg class="tip-icon" width="24" height="24" viewBox="0 0 24 24" fill="none" xmlns="http://www.w3.org/2000/svg">
<path fill-rule="evenodd" clip-rule="evenodd" d="M14.0849 3.16692C9.57942 2.18617 5.60938 5.57802 5.60938 9.90019C5.60938 12.3615 7.25247 14.7769 9.3166 16.0243C9.61626 16.2054 9.79938 16.5301 9.79938 16.8802V17.9902H15.2294V16.8702C15.2294 16.5199 15.4127 16.1951 15.7125 16.0141C18.6083 14.2659 20.4782 10.3312 18.6741 6.7057L18.6741 6.70567C17.7843 4.91753 16.0614 3.60467 14.0849 3.16692ZM3.60938 9.90019C3.60938 4.32286 8.73841 -0.0450037 14.5123 1.21312L14.5154 1.21379C17.0583 1.77639 19.2946 3.46331 20.4647 5.81471L19.5694 6.26019L20.4647 5.81471C22.7316 10.3703 20.532 15.118 17.2294 17.4129V18.0302C17.2294 18.0426 17.2296 18.0491 17.23 18.0614C17.2304 18.0746 17.231 18.0943 17.2318 18.1348C17.233 18.1922 17.2336 18.273 17.2279 18.3643C17.2169 18.5421 17.18 18.8077 17.0373 19.0813C16.6944 19.7388 16.0137 19.9902 15.2694 19.9902H9.76362C9.19863 19.9948 8.41472 19.9144 8.00719 19.2285C7.82757 18.9262 7.80142 18.6213 7.79531 18.449C7.79207 18.3576 7.79417 18.2698 7.79587 18.2067C7.79622 18.1937 7.79656 18.1815 7.79688 18.1701C7.79832 18.1182 7.79938 18.0802 7.79938 18.0402V17.4231C5.48084 15.8167 3.60938 12.9872 3.60938 9.90019ZM12.9977 7.02334C13.4765 7.29874 13.6413 7.91007 13.3659 8.3888L12.7266 9.50015H13.1291C13.5828 9.50015 14.1661 9.66929 14.4833 10.227C14.7974 10.7791 14.6507 11.3614 14.4256 11.7493L13.3679 13.6053C13.0944 14.0851 12.4838 14.2524 12.004 13.979C11.5241 13.7055 11.3568 13.0949 11.6303 12.615L12.2656 11.5001H11.8591C11.4026 11.5001 10.8283 11.3265 10.512 10.7793C10.1953 10.2312 10.3323 9.64652 10.5638 9.24883L11.6323 7.3915C11.9077 6.91278 12.519 6.74795 12.9977 7.02334ZM15.726 22.9622C13.6145 22.3629 11.3836 22.3629 9.27208 22.9622C8.74078 23.113 8.18783 22.8046 8.03703 22.2733C7.88622 21.742 8.19467 21.189 8.72597 21.0382C11.1945 20.3375 13.8036 20.3375 16.2721 21.0382C16.8034 21.189 17.1118 21.742 16.961 22.2733C16.8102 22.8046 16.2573 23.113 15.726 22.9622Z" fill="#3C3C49"/>
</svg>
