<svg class="twitter-icon" width="20" height="20" viewBox="0 0 20 20" fill="none" xmlns="http://www.w3.org/2000/svg">
<path d="M19.7029 4.32083C19.0071 4.62917 18.2596 4.8375 17.4737 4.93167C18.2754 4.45167 18.8904 3.69 19.1804 2.78333C18.4304 3.22833 17.5996 3.55167 16.7154 3.725C16.0071 2.97167 14.9988 2.5 13.8821 2.5C11.7388 2.5 10.0004 4.23833 10.0004 6.38333C10.0004 6.68667 10.0354 6.98167 10.1004 7.26667C6.87292 7.10417 4.01375 5.55833 2.09875 3.21C1.76542 3.785 1.57375 4.45167 1.57375 5.16167C1.57375 6.50833 2.25958 7.6975 3.30042 8.39333C2.66375 8.3725 2.06542 8.19833 1.54208 7.9075V7.9575C1.54208 9.83833 2.87958 11.4075 4.65625 11.7642C4.32958 11.8525 3.98708 11.8992 3.63375 11.8992C3.38375 11.8992 3.13958 11.8758 2.90292 11.8308C3.39708 13.3725 4.83042 14.4958 6.52958 14.5258C5.20042 15.5675 3.52625 16.1883 1.70792 16.1883C1.39458 16.1883 1.08542 16.17 0.78125 16.1342C2.49958 17.2367 4.53958 17.8783 6.73125 17.8783C13.8729 17.8783 17.7771 11.9633 17.7771 6.83333C17.7771 6.66667 17.7729 6.49833 17.7654 6.33167C18.5238 5.78333 19.1821 5.10083 19.7013 4.32333L19.7029 4.32083Z" fill="#BCBCC8"/>
</svg>
