<svg class="unlink-icon" width="24" height="24" viewBox="0 0 24 24" fill="none" xmlns="http://www.w3.org/2000/svg">
<g>
<path fill-rule="evenodd" clip-rule="evenodd" d="M6.74264 1C7.29493 1 7.74264 1.44772 7.74264 2V7.24264H2.5C1.94772 7.24264 1.5 6.79493 1.5 6.24264C1.5 5.69036 1.94772 5.24264 2.5 5.24264H5.74264V2C5.74264 1.44772 6.19036 1 6.74264 1ZM10.6317 4.47487C13.3654 1.7412 17.7976 1.7412 20.5312 4.47487C23.2649 7.20854 23.2649 11.6407 20.5312 14.3744L19.117 15.7886C18.7265 16.1791 18.0933 16.1791 17.7028 15.7886C17.3123 15.3981 17.3123 14.7649 17.7028 14.3744L19.117 12.9602C21.0696 11.0075 21.0696 7.84171 19.117 5.88909C17.1644 3.93647 13.9986 3.93647 12.0459 5.88909L10.6317 7.3033C10.2412 7.69383 9.60804 7.69383 9.21751 7.3033C8.82699 6.91278 8.82699 6.27961 9.21751 5.88909L10.6317 4.47487ZM15.5815 8.01041C15.972 7.61988 16.6052 7.61988 16.9957 8.01041C17.3862 8.40093 17.3862 9.0341 16.9957 9.42462L9.92462 16.4957C9.5341 16.8862 8.90093 16.8862 8.51041 16.4957C8.11988 16.1052 8.11988 15.472 8.51041 15.0815L15.5815 8.01041ZM7.8033 8.71751C8.19382 9.10804 8.19382 9.7412 7.8033 10.1317L6.38909 11.5459C4.43647 13.4986 4.43647 16.6644 6.38909 18.617C8.34171 20.5696 11.5075 20.5696 13.4602 18.617L14.8744 17.2028C15.2649 16.8123 15.8981 16.8123 16.2886 17.2028C16.6791 17.5933 16.6791 18.2265 16.2886 18.617L14.8744 20.0312C12.1407 22.7649 7.70854 22.7649 4.97487 20.0312C2.2412 17.2976 2.2412 12.8654 4.97487 10.1317L6.38909 8.71751C6.77961 8.32699 7.41278 8.32699 7.8033 8.71751ZM17.7635 17.2635H23.0061C23.5584 17.2635 24.0061 17.7112 24.0061 18.2635C24.0061 18.8157 23.5584 19.2635 23.0061 19.2635H19.7635V22.5061C19.7635 23.0584 19.3157 23.5061 18.7635 23.5061C18.2112 23.5061 17.7635 23.0584 17.7635 22.5061V17.2635Z" fill="#3C3C49"/>
</g>
<defs>
<clipPath>
<rect width="24" height="24" fill="white" transform="translate(0.5)"/>
</clipPath>
</defs>
</svg>
