<svg class="upload-icon" width="25" height="24" viewBox="0 0 25 24" fill="none" xmlns="http://www.w3.org/2000/svg">
<path fill-rule="evenodd" clip-rule="evenodd" d="M15.9442 8.81417C15.9915 8.26392 16.476 7.85627 17.0263 7.90365C18.9755 8.0715 20.5496 8.67543 21.602 9.97238C22.632 11.2417 23.0105 12.9934 23.0105 15.11V15.24C23.0105 17.5739 22.5493 19.4679 21.2638 20.7533C19.9784 22.0387 18.0844 22.5 15.7505 22.5H9.24047C6.90657 22.5 5.01254 22.0387 3.72711 20.7533C2.44169 19.4679 1.98047 17.5739 1.98047 15.24V15.11C1.98047 13.0087 2.35391 11.268 3.3671 10.0015C4.40341 8.70613 5.95504 8.0935 7.87765 7.91428C8.42755 7.86302 8.91489 8.26724 8.96615 8.81714C9.01741 9.36704 8.61319 9.85438 8.06329 9.90565C6.44589 10.0564 5.50253 10.5338 4.92884 11.2509C4.33203 11.9969 3.98047 13.1913 3.98047 15.11V15.24C3.98047 17.3761 4.41425 18.612 5.14133 19.3391C5.8684 20.0662 7.10437 20.5 9.24047 20.5H15.7505C17.8866 20.5 19.1225 20.0662 19.8496 19.3391C20.5767 18.612 21.0105 17.3761 21.0105 15.24V15.11C21.0105 13.1765 20.654 11.9782 20.0489 11.2325C19.4663 10.5145 18.5054 10.0384 16.8547 9.89627C16.3044 9.84889 15.8968 9.36442 15.9442 8.81417Z" fill="#3C3C49"/>
<path d="M12.5 16.9999C13.0523 16.9999 13.5 16.5522 13.5 15.9999V4.4138L15.1433 6.05708C15.5338 6.44761 16.167 6.44761 16.5575 6.05708C16.948 5.66656 16.948 5.03339 16.5575 4.64287L13.2075 1.29287C12.817 0.902344 12.1838 0.902344 11.7933 1.29287L8.44328 4.64287C8.05276 5.03339 8.05276 5.66656 8.44328 6.05708C8.83381 6.44761 9.46697 6.44761 9.8575 6.05708L11.5 4.41458V15.9999C11.5 16.5522 11.9477 16.9999 12.5 16.9999Z" fill="#3C3C49"/>
</svg>

