<svg class="usb-icon" width="25" height="24" viewBox="0 0 25 24" fill="none" xmlns="http://www.w3.org/2000/svg">
<g clip-path="url(#clip0_10321_47369)">
<path fill-rule="evenodd" clip-rule="evenodd" d="M9.5 1.75C9.36739 1.75 9.24021 1.80268 9.14645 1.89645C9.05268 1.99021 9 2.11739 9 2.25V5.75H16V2.25C16 2.11739 15.9473 1.99022 15.8536 1.89645C15.7598 1.80268 15.6326 1.75 15.5 1.75H9.5ZM18 5.75V2.25C18 1.58696 17.7366 0.951073 17.2678 0.482233C16.7989 0.0133926 16.163 -0.25 15.5 -0.25H9.5C8.83696 -0.25 8.20107 0.0133921 7.73223 0.482233C7.26339 0.951074 7 1.58696 7 2.25V5.75H6.5C5.83696 5.75 5.20107 6.01339 4.73223 6.48223C4.26339 6.95107 4 7.58696 4 8.25V10.7569C4 10.7568 4 10.7569 4 10.7569C3.99995 11.2823 4.10342 11.8027 4.30451 12.2882C4.50558 12.7736 4.80032 13.2146 5.17189 13.5861C5.17186 13.5861 5.17193 13.5861 5.17189 13.5861L7 15.4142V17.938C7 18.601 7.26339 19.2369 7.73223 19.7058C8.20108 20.1746 8.83696 20.438 9.5 20.438H11.5V23.25C11.5 23.8023 11.9477 24.25 12.5 24.25C13.0523 24.25 13.5 23.8023 13.5 23.25V20.438H15.5C16.163 20.438 16.7989 20.1746 17.2678 19.7058C17.7366 19.2369 18 18.601 18 17.938V15.4142L19.828 13.5862C19.828 13.5862 19.828 13.5862 19.828 13.5862C20.1996 13.2147 20.4944 12.7736 20.6955 12.2882C20.8966 11.8027 21 11.2824 21 10.757C21 10.757 21 10.757 21 10.757V8.25C21 7.58696 20.7366 6.95107 20.2678 6.48223C19.7989 6.01339 19.163 5.75 18.5 5.75H18ZM15.5 18.438C15.6326 18.438 15.7598 18.3853 15.8536 18.2916C15.9473 18.1978 16 18.0706 16 17.938V15C16 14.7348 16.1054 14.4804 16.2929 14.2929L18.4139 12.1719C18.5997 11.9861 18.7472 11.7655 18.8477 11.5228C18.9483 11.28 19 11.0199 19 10.7571V8.25C19 8.11739 18.9473 7.99022 18.8536 7.89645C18.7598 7.80268 18.6326 7.75 18.5 7.75H6.5C6.36739 7.75 6.24021 7.80268 6.14645 7.89645C6.05268 7.99021 6 8.11739 6 8.25V10.757C5.99997 11.0197 6.0517 11.28 6.15225 11.5228C6.2528 11.7655 6.40019 11.986 6.586 12.1718L8.70711 14.2929C8.89464 14.4804 9 14.7348 9 15V17.938C9 18.0706 9.05268 18.1978 9.14645 18.2916C9.24021 18.3853 9.36739 18.438 9.5 18.438H15.5ZM10.75 3.75C10.75 3.19772 11.1977 2.75 11.75 2.75H13.25C13.8023 2.75 14.25 3.19772 14.25 3.75C14.25 4.30228 13.8023 4.75 13.25 4.75H11.75C11.1977 4.75 10.75 4.30228 10.75 3.75Z" fill="#3C3C49"/>
</g>
<defs>
<clipPath id="clip0_10321_47369">
<rect width="24" height="24" fill="white" transform="translate(0.5)"/>
</clipPath>
</defs>
</svg>

