<svg class="wallet-icon" width="24" height="24" viewBox="0 0 24 24" fill="none" xmlns="http://www.w3.org/2000/svg">
<path fill-rule="evenodd" clip-rule="evenodd" d="M1.5 4C1.5 2.34315 2.84315 1 4.5 1H16.5C17.0523 1 17.5 1.44772 17.5 2C17.5 2.55228 17.0523 3 16.5 3H4.5C3.94772 3 3.5 3.44772 3.5 4C3.5 4.55228 3.94772 5 4.5 5H19.5C21.7091 5 23.5 6.79086 23.5 9V19C23.5 21.2091 21.7091 23 19.5 23H5.5C3.29086 23 1.5 21.2091 1.5 19V4ZM3.5 6.82929V19C3.5 20.1046 4.39543 21 5.5 21H19.5C20.6046 21 21.5 20.1046 21.5 19V9C21.5 7.89543 20.6046 7 19.5 7H4.5C4.14936 7 3.81278 6.93985 3.5 6.82929ZM13.5 14C13.5 13.4477 13.9477 13 14.5 13H16.5C17.0523 13 17.5 13.4477 17.5 14C17.5 14.5523 17.0523 15 16.5 15H14.5C13.9477 15 13.5 14.5523 13.5 14Z" fill="#3C3C49"/>
</svg>
