<svg class="warning-icon" width="25" height="24" viewBox="0 0 25 24" fill="none" xmlns="http://www.w3.org/2000/svg">
<path fill-rule="evenodd" clip-rule="evenodd" d="M11.4201 3.28604L5.48381 6.71391C4.8179 7.10663 4.41016 7.81955 4.41016 8.58003V15.42C4.41016 16.1948 4.82133 16.9037 5.48014 17.284L11.4163 20.7118L11.4182 20.7129C12.092 21.097 12.9118 21.0941 13.5702 20.714L19.5036 17.2879L19.5065 17.2862C20.1724 16.8935 20.5802 16.1805 20.5802 15.42V8.58003C20.5802 7.8113 20.174 7.10747 19.5065 6.71389L19.5036 6.71216L13.5741 3.28824L13.5722 3.28721C12.8984 2.90303 12.0786 2.90595 11.4201 3.28604ZM10.4202 1.55396C11.7012 0.814437 13.2805 0.816989 14.5663 1.55176L14.5703 1.554L20.5168 4.98781C21.7876 5.73456 22.5802 7.0899 22.5802 8.58003V15.42C22.5802 16.8984 21.7891 18.2646 20.5168 19.0122L20.5103 19.0161L14.5702 22.446C13.2893 23.1856 11.7099 23.183 10.424 22.4483L10.4201 22.446L4.48018 19.0161C3.19899 18.2764 2.41016 16.9052 2.41016 15.42V8.58003C2.41016 7.10165 3.20121 5.73548 4.47353 4.98783L4.48009 4.98398L10.4202 1.55396ZM12.5 7C13.0523 7 13.5 7.44772 13.5 8V12C13.5 12.5523 13.0523 13 12.5 13C11.9477 13 11.5 12.5523 11.5 12V8C11.5 7.44772 11.9477 7 12.5 7Z" fill="#3C3C49"/>
<path fill-rule="evenodd" clip-rule="evenodd" d="M12.5 14.9502C13.1904 14.9502 13.75 15.5098 13.75 16.2002V16.3002C13.75 16.9906 13.1904 17.5502 12.5 17.5502C11.8096 17.5502 11.25 16.9906 11.25 16.3002V16.2002C11.25 15.5098 11.8096 14.9502 12.5 14.9502Z" fill="#3C3C49"/>
</svg>
