<svg width="233" height="164" viewBox="0 0 233 164" fill="none" xmlns="http://www.w3.org/2000/svg">
<rect y="124.992" width="135.196" height="75.1089" rx="12.0174" transform="rotate(-15 0 124.992)" fill="#58DAC2"/>
<mask id="mask0_13976_155248" style="mask-type:alpha" maskUnits="userSpaceOnUse" x="2" y="92" width="146" height="103">
<rect y="124.992" width="135.196" height="75.1089" rx="12.0174" transform="rotate(-15 0 124.992)" fill="#58DAC2"/>
</mask>
<g mask="url(#mask0_13976_155248)">
<path d="M53.9746 182.566C53.9746 184.551 53.561 207.38 53.561 218.546C58.9375 219.787 82.0976 219.373 87.8876 218.546C87.8876 216.892 83.7519 179.67 84.579 177.189C85.1092 175.598 93.5519 167.795 101.567 161.352C104.939 158.641 106.396 154.135 105.028 150.031L101.636 139.856C101.296 138.834 100.795 137.866 100.123 137.025C94.4115 129.883 90.2331 128.679 82.0976 133.764C75.4804 137.9 68.4497 142.035 67.209 140.795C65.9683 139.554 63.9004 132.11 63.4868 126.733C63.0732 121.357 54.3882 119.702 53.1475 120.53C51.9068 121.357 55.2154 124.665 55.6289 126.32C56.0424 127.974 55.6289 135.832 55.6289 138.727C55.6289 141.622 52.6936 150.307 52.28 151.547C51.8664 152.788 54.3882 173.467 54.8018 175.121C55.2154 176.775 53.9746 180.084 53.9746 182.566Z" fill="#865DDB"/>
<path d="M78.9812 139.248C82.2898 136.27 88.0798 133.634 90.9748 129.084C93.4562 128.257 96.3512 129.085 96.3512 133.634C92.2155 138.597 90.1476 139.662 85.1848 141.73C80.2219 143.797 74.8454 142.97 78.9812 139.248Z" fill="#865DDB"/>
<path d="M83.9546 147.997C87.1501 144.135 92.3965 141.275 97.4971 131.991C100.969 132.646 101.59 133.797 102.777 138.209C101.717 143.85 96.7163 145.888 91.4732 149.095C86.23 152.303 79.9601 152.823 83.9546 147.997Z" fill="#865DDB"/>
<path d="M89.322 153.085C92.687 149.643 98.3797 147.469 103.076 139.967C105.958 139.697 108.45 141.178 107.773 145.757C104.865 150.184 101.741 152.027 96.4593 154.693C91.1777 157.359 85.1158 157.387 89.322 153.085Z" fill="#865DDB"/>
<path d="M96.2169 159.987C98.609 156.979 102.926 154.835 106.065 148.459C108.312 148.044 110.382 149.07 110.188 152.813C108.229 156.584 105.908 158.285 101.951 160.798C97.9932 163.31 93.2268 163.747 96.2169 159.987Z" fill="#865DDB"/>
</g>
<rect x="150" y="67.4941" width="67.5927" height="65.7659" rx="11.8137" transform="rotate(-15 150 67.4941)" fill="#FFD977"/>
<path d="M207.197 105.567L177.46 113.535L169.799 84.943L175.748 74.0297L205.603 66.0299L213.276 94.6639L207.197 105.567ZM178.667 111.418L206.057 104.079L211.43 94.4219L204.39 68.1484L176.894 75.516L171.635 85.1746L178.667 111.418Z" fill="#8755D5"/>
<path d="M201.006 96.3253L198.377 97.0297L194.927 91.0973L192.922 98.4914L189.952 99.2872L193.047 87.837L191.188 84.6274L187.019 100.073L184.057 100.867L189.365 81.2788L191.918 80.5947L194.179 84.5142L196.861 83.7956L195.885 87.457L201.006 96.3253Z" fill="#8755D5"/>
<rect x="25.1719" y="-34" width="135.196" height="75.1089" rx="12.0174" transform="rotate(14 25.1719 -34)" fill="#F7A079"/>
<mask id="mask1_13976_155248" style="mask-type:alpha" maskUnits="userSpaceOnUse" x="9" y="-32" width="145" height="102">
<rect x="25.1719" y="-34" width="135.196" height="75.1089" rx="12.0174" transform="rotate(14 25.1719 -34)" fill="#F7A079"/>
</mask>
<g mask="url(#mask1_13976_155248)">
<path d="M49.8143 38.7067C49.1334 41.2529 34.7306 65.3693 27.6144 77.1092L58.8238 105.173C63.599 92.4396 76.4138 57.1057 77.4047 54.0003C78.6433 50.1185 90.9699 37.7645 93.9547 34.8507C96.9395 31.9369 99.7278 25.2595 97.9816 24.2915C96.2353 23.3236 95.8479 24.0224 95.1495 23.6352C94.451 23.2481 96.5817 19.404 94.4863 18.2425C92.3908 17.0809 91.4222 18.8283 89.5205 17.3173C87.6187 15.8063 108.049 -2.10644 105.293 -4.54766C102.537 -6.98888 84.0089 12.4348 82.2627 11.4668C80.5165 10.4989 91.2848 -11.3988 88.8401 -12.7539C86.8844 -13.838 76.399 2.27774 71.4008 10.4711L69.92 9.65033C68.6546 8.94891 67.1316 8.88825 65.8145 9.48693L56.1877 13.8627C54.7052 14.5365 53.5519 15.7741 53.0541 17.3247C52.2724 19.7597 51.1183 23.7149 50.466 27.6472C49.6694 32.4498 50.1813 37.3344 49.8143 38.7067Z" fill="#865DDB"/>
</g>
</svg>
