<svg width="326" height="259" viewBox="0 0 326 259" fill="none" xmlns="http://www.w3.org/2000/svg">
<path d="M104.6 76.5644C134.907 102.15 161.617 115.894 167.224 109.168L175.069 98.6683L71.1435 10.7847L61.2599 20.8296C55.9349 27.2172 75.3389 52.1705 104.6 76.5644Z" fill="url(#paint0_linear_4290_32887)"/>
<path d="M133.064 43.1565C162.252 68.3412 179.439 90.8735 175.928 98.2811C170.321 105.007 143.859 91.4693 113.886 66.162C84.9454 42.0356 65.8016 17.2992 71.1266 10.9117C76.4517 4.52415 104.124 19.0301 133.064 43.1565Z" fill="url(#paint1_linear_4290_32887)"/>
<path d="M121.779 59.653L121.776 59.651C107.325 47.6039 95.3324 35.4138 87.6226 25.4518C83.7652 20.4675 80.9972 16.0627 79.5236 12.5272C78.7865 10.7588 78.3841 9.23329 78.3179 7.97679C78.2518 6.72381 78.5207 5.77722 79.0812 5.10488C79.6415 4.43275 80.5223 3.99996 81.7633 3.84279C83.0079 3.68515 84.5767 3.81108 86.4439 4.22368C90.177 5.0486 94.995 6.99436 100.579 9.90769C111.739 15.73 125.861 25.3645 140.312 37.4109C154.888 49.9886 166.454 61.8926 173.933 71.5641C177.675 76.4023 180.379 80.6643 181.93 84.1602C182.705 85.9079 183.184 87.4475 183.367 88.7605C183.545 90.0438 183.436 91.0805 183.074 91.8823C181.848 93.2979 179.418 93.7464 175.749 93.0408C172.079 92.335 167.357 90.5068 161.844 87.6626C150.825 81.9782 136.748 72.2916 121.779 59.653Z" stroke="#F5F5F5"/>
<path d="M247.385 0.595676C210.954 11.4828 182.219 13.3387 179.865 5.28128L176.988 -6.94995L301.968 -44.4129L306.81 -31.8013C309.046 -24.149 282.44 -9.64439 247.385 0.595676Z" fill="url(#paint2_linear_4290_32887)"/>
<path d="M235.155 -39.6626C199.862 -28.6992 176.131 -15.4741 176.382 -7.6196C178.736 0.437824 207.175 -1.33163 243.206 -12.1018C277.876 -22.2296 304.17 -36.6431 301.935 -44.2954C299.699 -51.9477 269.825 -49.7903 235.155 -39.6626Z" fill="url(#paint3_linear_4290_32887)"/>
<path d="M103.387 186.854C92.0159 218.39 78.2734 239.737 71.327 237.184L61.147 232.814L100.078 124.566L111.557 127.742C118.154 130.167 114.497 156.632 103.387 186.854Z" fill="url(#paint4_linear_4290_32887)"/>
<path d="M68.4337 174.429C57.7127 205.198 54.6542 228.955 60.3546 232.893C67.301 235.447 80.9497 214.355 92.1943 183.164C103.182 153.274 106.741 127.077 100.144 124.652C93.5465 122.227 79.4212 144.539 68.4337 174.429Z" fill="url(#paint5_linear_4290_32887)"/>
<path d="M80.1074 178.922L80.1084 178.919C85.5935 163.997 89.2188 150.012 90.6512 139.469C91.3679 134.193 91.5316 129.807 91.1174 126.606C90.9102 125.005 90.5617 123.728 90.0847 122.791C89.6093 121.857 89.0251 121.295 88.3546 121.049C87.6843 120.803 86.8777 120.853 85.9147 121.257C84.9482 121.663 83.8607 122.412 82.6719 123.5C80.2952 125.675 77.5951 129.129 74.7404 133.618C69.0359 142.59 62.7729 155.605 57.2879 170.526C51.935 185.889 48.5012 199.485 47.115 209.718C46.4215 214.837 46.2437 219.093 46.585 222.298C46.7557 223.901 47.0543 225.223 47.4721 226.252C47.8783 227.253 48.3856 227.95 48.9703 228.373C50.4221 228.869 52.3564 228.195 54.7349 226.136C57.1149 224.076 59.7934 220.749 62.6254 216.34C68.2847 207.529 74.493 194.495 80.1074 178.922Z" stroke="#F5F5F5"/>
<path d="M245.544 255.604C280.738 255.604 309.015 225.612 309.015 185.855C309.015 147.334 282.133 118.896 247.259 117.153L236.099 116.455L225.288 255.604H245.544Z" fill="url(#paint6_linear_4290_32887)"/>
<path d="M291.579 185.854C288.789 225.263 261.935 253.511 228.107 255.603C190.791 255.603 162.892 225.96 163.938 185.854C163.938 147.333 192.668 116.105 228.107 116.105C263.547 116.105 291.579 147.333 291.579 185.854Z" fill="url(#paint7_linear_4290_32887)"/>
<path d="M231.29 163.352C232.651 168.975 232.191 173.922 230.262 174.4C228.332 174.878 225.664 170.708 224.303 165.085C222.941 159.462 223.401 154.516 225.331 154.037C227.26 153.559 229.928 157.729 231.29 163.352Z" fill="white"/>
<path d="M253.773 168.187C250.757 165.001 244.758 165.865 240.373 170.115C235.988 174.366 234.878 180.394 237.894 183.58C240.909 186.765 246.908 185.902 251.293 181.651C255.678 177.401 256.788 171.372 253.773 168.187Z" fill="white"/>
<path d="M229.79 216.965C231.719 216.486 232.112 211.26 230.667 205.292C229.222 199.324 226.486 194.874 224.557 195.352C222.627 195.831 222.235 201.057 223.68 207.025C225.125 212.993 227.861 217.443 229.79 216.965Z" fill="white"/>
<path d="M210.122 171.103C215.689 172.739 219.756 175.61 219.207 177.514C218.658 179.419 213.701 179.637 208.134 178.001C202.568 176.365 198.501 173.494 199.05 171.589C199.599 169.685 204.556 169.467 210.122 171.103Z" fill="white"/>
<path d="M246.25 192.611C252.158 194.347 256.502 197.299 255.953 199.204C255.404 201.108 250.17 201.245 244.262 199.508C238.354 197.772 234.01 194.82 234.559 192.915C235.108 191.01 240.342 190.874 246.25 192.611Z" fill="white"/>
<path d="M216.386 188.614C215.005 187.188 210.478 189.264 206.273 193.251C202.068 197.238 199.779 201.626 201.159 203.052C202.539 204.478 207.067 202.403 211.272 198.416C215.476 194.429 217.766 190.041 216.386 188.614Z" fill="white"/>
<defs>
<linearGradient id="paint0_linear_4290_32887" x1="60.9334" y1="21.2213" x2="166.897" y2="109.56" gradientUnits="userSpaceOnUse">
<stop stop-color="#432CA0"/>
<stop offset="0.282411" stop-color="#6B46FE"/>
<stop offset="0.50614" stop-color="#2F1F71"/>
<stop offset="0.73463" stop-color="#6B46FE"/>
<stop offset="1" stop-color="#432CA0"/>
</linearGradient>
<linearGradient id="paint1_linear_4290_32887" x1="80.2924" y1="35.0755" x2="116.224" y2="6.19366" gradientUnits="userSpaceOnUse">
<stop stop-color="#6B46FE"/>
<stop offset="0.276042" stop-color="#9479FF"/>
<stop offset="0.536458" stop-color="#9482FE"/>
<stop offset="0.614978" stop-color="#B09FFF"/>
<stop offset="1" stop-color="#6B46FE"/>
</linearGradient>
<linearGradient id="paint2_linear_4290_32887" x1="306.947" y1="-31.332" x2="180.002" y2="5.75054" gradientUnits="userSpaceOnUse">
<stop stop-color="#432CA0"/>
<stop offset="0.282411" stop-color="#6B46FE"/>
<stop offset="0.50614" stop-color="#2F1F71"/>
<stop offset="0.73463" stop-color="#6B46FE"/>
<stop offset="1" stop-color="#432CA0"/>
</linearGradient>
<linearGradient id="paint3_linear_4290_32887" x1="284.63" y1="-26.5659" x2="264.104" y2="-65.7035" gradientUnits="userSpaceOnUse">
<stop stop-color="#6B46FE"/>
<stop offset="0.276042" stop-color="#9479FF"/>
<stop offset="0.536458" stop-color="#9482FE"/>
<stop offset="0.614978" stop-color="#B09FFF"/>
<stop offset="1" stop-color="#6B46FE"/>
</linearGradient>
<linearGradient id="paint4_linear_4290_32887" x1="111.962" y1="127.891" x2="71.7315" y2="237.332" gradientUnits="userSpaceOnUse">
<stop stop-color="#432CA0"/>
<stop offset="0.282411" stop-color="#6B46FE"/>
<stop offset="0.50614" stop-color="#2F1F71"/>
<stop offset="0.73463" stop-color="#6B46FE"/>
<stop offset="1" stop-color="#432CA0"/>
</linearGradient>
<linearGradient id="paint5_linear_4290_32887" x1="103.646" y1="146.213" x2="65.1401" y2="140.257" gradientUnits="userSpaceOnUse">
<stop stop-color="#6B46FE"/>
<stop offset="0.276042" stop-color="#9479FF"/>
<stop offset="0.536458" stop-color="#9482FE"/>
<stop offset="0.614978" stop-color="#B09FFF"/>
<stop offset="1" stop-color="#6B46FE"/>
</linearGradient>
<linearGradient id="paint6_linear_4290_32887" x1="267.152" y1="116.455" x2="267.152" y2="255.604" gradientUnits="userSpaceOnUse">
<stop stop-color="#432CA0"/>
<stop offset="0.282411" stop-color="#6B46FE"/>
<stop offset="0.50614" stop-color="#2F1F71"/>
<stop offset="0.73463" stop-color="#6B46FE"/>
<stop offset="1" stop-color="#432CA0"/>
</linearGradient>
<linearGradient id="paint7_linear_4290_32887" x1="174.023" y1="139.123" x2="291.55" y2="237.817" gradientUnits="userSpaceOnUse">
<stop stop-color="#6B46FE"/>
<stop offset="0.104167" stop-color="#C6BCFF"/>
<stop offset="0.276042" stop-color="#9479FF"/>
<stop offset="0.536458" stop-color="#9482FE"/>
<stop offset="0.744792" stop-color="#B09FFF"/>
<stop offset="1" stop-color="#6B46FE"/>
</linearGradient>
</defs>
</svg>
