<svg class="moon-pay-logo" width="100" height="18" viewBox="0 0 100 18" fill="none" xmlns="http://www.w3.org/2000/svg">
<g clip-path="url(#clip0_7004_43526)">
<path d="M93.2482 14.7885L89.4982 6.2805H92.0092L94.5703 12.3823L97.5302 6.2805H99.9997L94.1627 17.9995H91.6518L93.2482 14.7885ZM84.117 13.0269C84.3385 12.9771 84.5525 12.8984 84.753 12.7929C84.9469 12.691 85.1271 12.5654 85.2893 12.4192C85.4514 12.2727 85.5914 12.104 85.7051 11.9183C85.8242 11.7232 85.9165 11.5133 85.9795 11.2941C86.0476 11.055 86.0812 10.8075 86.0792 10.5591C86.0815 10.308 86.048 10.0578 85.9795 9.8159C85.9165 9.59674 85.8242 9.38685 85.7051 9.19177C85.5907 9.00532 85.4508 8.83536 85.2893 8.68671C85.1291 8.53923 84.9485 8.41482 84.753 8.31715C84.551 8.21675 84.3374 8.14092 84.117 8.09132C83.8852 8.03884 83.648 8.01266 83.4102 8.0133C83.1738 8.0125 82.938 8.03868 82.7076 8.09132C82.4898 8.14095 82.279 8.21679 82.0799 8.31715C81.8852 8.41613 81.7048 8.54042 81.5436 8.68671C81.3801 8.83454 81.2387 9.00459 81.1237 9.19177C81.0047 9.38644 80.9138 9.59649 80.8534 9.8159C80.7878 10.0582 80.7556 10.3083 80.7578 10.5591C80.7559 10.8073 80.7881 11.0545 80.8534 11.2941C80.9138 11.5135 81.0047 11.7236 81.1237 11.9183C81.238 12.1047 81.3795 12.2735 81.5436 12.4192C81.7068 12.5642 81.8868 12.6896 82.0799 12.7929C82.2775 12.8983 82.4887 12.9771 82.7076 13.0269C82.938 13.0797 83.1738 13.1059 83.4102 13.105C83.648 13.1057 83.8852 13.0795 84.117 13.0269ZM81.5851 14.9322C81.2002 14.8354 80.8298 14.6891 80.4834 14.4969C79.8089 14.1223 79.2522 13.571 78.8745 12.9038C78.68 12.5588 78.5319 12.1902 78.4339 11.8074C78.2288 10.9848 78.2288 10.1253 78.4339 9.30266C78.5314 8.92099 78.6796 8.55373 78.8745 8.21042C79.2539 7.54558 79.8103 6.99601 80.4834 6.62133C80.8298 6.42921 81.2002 6.28287 81.5851 6.18608C81.9968 6.08295 82.4201 6.0319 82.8448 6.03415C83.0741 6.03364 83.3032 6.04735 83.5307 6.07521C83.7401 6.1008 83.9471 6.14198 84.1502 6.1984C84.3384 6.25116 84.5231 6.31562 84.7031 6.39139C84.8716 6.46219 85.0342 6.54594 85.1895 6.64186C85.3355 6.73216 85.472 6.83671 85.5969 6.95393C85.7138 7.06347 85.8222 7.18152 85.9212 7.30706V6.2805H88.3075V14.8378H85.9212V13.8112C85.7686 14.0003 85.5942 14.1712 85.4015 14.3204C85.1885 14.4856 84.9553 14.6235 84.7073 14.731C84.4315 14.8506 84.1427 14.9388 83.8467 14.9938C83.5164 15.0555 83.1809 15.0858 82.8448 15.0841C82.4201 15.0864 81.9968 15.0353 81.5851 14.9322ZM72.9219 8.44856C73.2637 8.45475 73.6048 8.41608 73.9363 8.33359C74.1947 8.26912 74.4358 8.15004 74.643 7.98456C74.8301 7.83046 74.9734 7.63093 75.0588 7.40559C75.1518 7.15027 75.1969 6.88031 75.1918 6.609C75.1971 6.339 75.152 6.07035 75.0588 5.81651C74.9731 5.5936 74.8298 5.3968 74.643 5.24575C74.4348 5.08273 74.1939 4.96518 73.9363 4.90083C73.6048 4.81844 73.2637 4.77978 72.9219 4.78586H70.5772V8.44856L72.9219 8.44856ZM68.1077 2.76562H73.1547C73.9474 2.76562 74.6347 2.86144 75.2167 3.05306C75.7987 3.24468 76.2782 3.51021 76.6552 3.84965C77.0301 4.18622 77.3193 4.60548 77.4991 5.07329C77.6879 5.56647 77.7823 6.08998 77.7777 6.61721C77.7836 7.14321 77.6891 7.6656 77.4991 8.15702C77.3163 8.62095 77.0275 9.03691 76.6552 9.37245C76.2782 9.71471 75.7987 9.98161 75.2167 10.1731C74.6347 10.3649 73.9474 10.4607 73.1547 10.4606H70.5772V14.8378H68.1077V2.76562ZM57.5037 6.2805H59.8734V7.30705C60.0196 7.1078 60.1931 6.92954 60.3889 6.77735C60.5961 6.61678 60.8222 6.48166 61.0624 6.37495C61.327 6.25808 61.6047 6.17262 61.8897 6.12036C62.2063 6.06156 62.5279 6.03269 62.85 6.03414C63.3517 6.02704 63.8505 6.11053 64.3217 6.2805C64.7416 6.43328 65.1221 6.67586 65.4359 6.99087C65.7512 7.31733 65.9897 7.70851 66.1343 8.13649C66.3012 8.62862 66.3827 9.14505 66.3754 9.66399V14.8378H64.0058V10.2717C64.0115 9.9379 63.9638 9.60532 63.8644 9.28622C63.7822 9.02277 63.6448 8.77934 63.4612 8.57175C63.2846 8.3789 63.0636 8.231 62.8168 8.1406C62.537 8.04066 62.2412 7.99196 61.9437 7.99688C61.645 7.99221 61.3478 8.0409 61.0665 8.1406C60.8182 8.23023 60.5956 8.3782 60.418 8.57175C60.2343 8.77934 60.0969 9.02277 60.0147 9.28622C59.9154 9.60532 59.8677 9.9379 59.8734 10.2717V14.8378H57.5037V6.2805ZM51.6725 13.0023C51.8987 12.9483 52.1177 12.8684 52.3252 12.7641C52.5225 12.6645 52.7034 12.5357 52.8615 12.3822C53.018 12.2308 53.1536 12.0596 53.2647 11.8731C53.378 11.681 53.462 11.4734 53.5141 11.2572C53.5707 11.0231 53.5986 10.7833 53.5973 10.5427C53.5988 10.3034 53.5708 10.0649 53.5141 9.83232C53.4093 9.40362 53.1829 9.01334 52.8615 8.70723C52.7013 8.55511 52.5208 8.42526 52.3252 8.32125C52.1194 8.21224 51.8999 8.13077 51.6725 8.07899C51.4257 8.02302 51.1732 7.99546 50.92 7.99686C50.6695 7.99575 50.4198 8.02331 50.1758 8.07899C49.9495 8.13028 49.7313 8.21179 49.5273 8.32125C49.3333 8.42597 49.1544 8.55578 48.9951 8.70723C48.8383 8.85636 48.7052 9.02801 48.6002 9.21639C48.4929 9.40992 48.4092 9.61529 48.3507 9.82823C48.2879 10.0613 48.2572 10.3016 48.2593 10.5427C48.2579 10.7838 48.2886 11.024 48.3507 11.2572C48.4076 11.4719 48.4914 11.6788 48.6002 11.8731C48.7065 12.0606 48.8395 12.2321 48.9951 12.3823C49.1523 12.535 49.3316 12.6638 49.5273 12.7641C49.733 12.8688 49.9508 12.9488 50.1758 13.0023C50.4194 13.0608 50.6693 13.0897 50.92 13.0885C51.1734 13.09 51.4261 13.0611 51.6725 13.0023V13.0023ZM49.5231 14.9281C49.0955 14.8298 48.6811 14.6823 48.2884 14.4887C47.9189 14.3068 47.5763 14.0761 47.2698 13.803C46.9728 13.5376 46.7153 13.2321 46.5049 12.8955C46.2916 12.5529 46.1278 12.1825 46.0185 11.7951C45.7912 10.9753 45.7912 10.1102 46.0185 9.29033C46.1274 8.90403 46.2911 8.53491 46.5049 8.19398C46.7168 7.8585 46.9742 7.55319 47.2698 7.28654C47.5755 7.01123 47.9182 6.77908 48.2884 6.5967C48.6812 6.40316 49.0956 6.2557 49.5231 6.15734C50.448 5.94929 51.4085 5.94929 52.3335 6.15734C52.7586 6.25482 53.1703 6.40233 53.5599 6.5967C53.9284 6.78179 54.2708 7.0137 54.5784 7.28654C54.8786 7.55222 55.1402 7.85759 55.3558 8.19398C55.572 8.53419 55.7372 8.90345 55.8464 9.29033C56.0737 10.1102 56.0737 10.9753 55.8464 11.7951C55.7367 12.1831 55.5715 12.5537 55.3558 12.8955C55.1417 13.233 54.88 13.5386 54.5784 13.803C54.27 14.0737 53.9277 14.3041 53.5599 14.4887C53.1716 14.6827 52.7613 14.8302 52.3376 14.9281C51.4113 15.1361 50.4494 15.1361 49.5231 14.9281ZM40.2763 13.0023C40.5025 12.9483 40.7215 12.8684 40.929 12.7641C41.1263 12.6645 41.3072 12.5357 41.4653 12.3822C41.6218 12.2308 41.7574 12.0596 41.8685 11.8731C41.9819 11.681 42.0659 11.4735 42.118 11.2572C42.1745 11.0231 42.2024 10.7833 42.2011 10.5427C42.2026 10.3034 42.1747 10.0649 42.118 9.83232C42.0131 9.40362 41.7867 9.01333 41.4653 8.70723C41.3051 8.55511 41.1246 8.42526 40.929 8.32125C40.7233 8.21222 40.5038 8.13075 40.2763 8.07899C40.0295 8.02302 39.777 7.99546 39.5238 7.99686C39.2734 7.99576 39.0236 8.02331 38.7796 8.07899C38.5533 8.13028 38.3351 8.21179 38.1311 8.32125C37.9371 8.426 37.7582 8.5558 37.5989 8.70723C37.4421 8.85636 37.309 9.02801 37.204 9.21639C37.0968 9.40996 37.0131 9.61531 36.9546 9.82821C36.8917 10.0612 36.861 10.3016 36.8631 10.5427C36.8617 10.7838 36.8924 11.024 36.9546 11.2572C37.0115 11.4719 37.0953 11.6788 37.204 11.8731C37.3103 12.0606 37.4433 12.2321 37.5989 12.3822C37.7561 12.535 37.9354 12.6637 38.1311 12.7641C38.3369 12.8688 38.5546 12.9488 38.7796 13.0023C39.0232 13.0607 39.2731 13.0897 39.5238 13.0885C39.7772 13.09 40.0299 13.061 40.2763 13.0023ZM38.1269 14.9281C37.6994 14.8298 37.285 14.6824 36.8922 14.4888C36.5228 14.3068 36.1801 14.0761 35.8736 13.803C35.5767 13.5376 35.3192 13.2321 35.1087 12.8956C34.8954 12.553 34.7317 12.1826 34.6223 11.7951C34.395 10.9753 34.395 10.1102 34.6223 9.29037C34.7312 8.90407 34.895 8.53495 35.1087 8.19403C35.3207 7.85856 35.578 7.55326 35.8736 7.28658C36.1793 7.0113 36.5221 6.77914 36.8922 6.59674C37.285 6.4032 37.6994 6.25574 38.1269 6.15738C39.0519 5.94933 40.0123 5.94933 40.9373 6.15738C41.3624 6.25485 41.7742 6.40236 42.1637 6.59674C42.5322 6.7818 42.8746 7.01372 43.1822 7.28658C43.4825 7.55224 43.7441 7.85761 43.9597 8.19403C44.1758 8.53421 44.3411 8.90348 44.4502 9.29037C44.6775 10.1102 44.6775 10.9753 44.4502 11.7951C44.3406 12.1832 44.1754 12.5537 43.9597 12.8956C43.7456 13.2331 43.4838 13.5387 43.1822 13.803C42.8738 14.0737 42.5315 14.3042 42.1637 14.4888C41.7754 14.6828 41.3651 14.8303 40.9414 14.9281C40.0151 15.1361 39.0533 15.1361 38.1269 14.9281ZM19.4238 2.76562H21.9182L26.1836 9.20408L30.4657 2.76562H32.9601V14.8378H30.4906V6.55972L26.9486 11.8977H25.4353L21.8933 6.55972V14.8378H19.4238V2.76562Z" fill="#9D9DAE"/>
<path d="M13.7285 4.9274C14.2219 4.9274 14.7042 4.78291 15.1144 4.51219C15.5246 4.24148 15.8443 3.8567 16.0331 3.40652C16.2219 2.95633 16.2713 2.46097 16.175 1.98306C16.0788 1.50515 15.8412 1.06616 15.4923 0.721602C15.1435 0.377047 14.699 0.142403 14.2152 0.0473404C13.7313 -0.047722 13.2298 0.00106748 12.774 0.187539C12.3182 0.374011 11.9286 0.689789 11.6545 1.09494C11.3804 1.5001 11.2341 1.97643 11.2341 2.4637C11.2341 2.78724 11.2986 3.10762 11.424 3.40654C11.5493 3.70546 11.7331 3.97706 11.9647 4.20584C12.1963 4.43462 12.4713 4.6161 12.774 4.7399C13.0766 4.86371 13.401 4.92742 13.7285 4.9274ZM6.0801 16.0233C4.87757 16.0233 3.70205 15.6711 2.70218 15.0112C1.70231 14.3513 0.92301 13.4134 0.462822 12.3161C0.00263373 11.2188 -0.117772 10.0113 0.116831 8.84643C0.351434 7.68152 0.930508 6.61148 1.78083 5.77163C2.63114 4.93178 3.71452 4.35983 4.89394 4.12812C6.07336 3.89641 7.29587 4.01533 8.40686 4.46986C9.51785 4.92439 10.4674 5.6941 11.1355 6.68167C11.8036 7.66923 12.1602 8.83029 12.1602 10.018C12.1602 10.8066 12.003 11.5876 11.6974 12.3162C11.3919 13.0448 10.944 13.7068 10.3794 14.2644C9.81483 14.8221 9.14456 15.2644 8.40688 15.5662C7.6692 15.868 6.87856 16.0233 6.0801 16.0233Z" fill="#9D9DAE"/>
</g>
<defs>
<clipPath id="clip0_7004_43526">
<rect width="100" height="18" fill="white"/>
</clipPath>
</defs>
</svg>
